<svg width="230" height="142" viewBox="0 0 230 142" fill="none" xmlns="http://www.w3.org/2000/svg">
<path d="M143.315 73.3C143.295 71.55 142.885 69.82 142.245 68.195C141.75 66.935 141.18 65.71 140.62 64.48C136.17 54.785 131.5 45.195 126.62 35.71C125.935 34.385 125.26 33.05 124.535 31.75C123.82 30.48 122.99 29.25 121.915 28.255C120.2 26.62 117.9 25.645 115.54 25.5H114.455C112.025 25.62 109.65 26.64 107.91 28.34C106.875 29.32 106.075 30.515 105.38 31.755C104.665 33.04 104 34.35 103.325 35.655C100.05 42.015 96.87 48.425 93.785 54.885C91.945 58.75 90.125 62.62 88.37 66.525C87.645 68.15 86.985 69.835 86.74 71.61C86.28 74.605 86.94 77.755 88.54 80.325C89.92 82.56 91.99 84.36 94.405 85.405C96.28 86.215 98.355 86.585 100.395 86.465C103.135 86.32 105.78 85.335 108.1 83.895C110.685 82.305 112.9 80.195 114.96 77.985C116.875 80.05 118.925 82.02 121.295 83.565C123.58 85.07 126.19 86.16 128.93 86.415C131.91 86.725 134.99 85.99 137.49 84.33C139.69 82.88 141.425 80.745 142.395 78.3C143.03 76.715 143.345 75.005 143.315 73.3ZM114.975 72.145C114.225 71.265 113.57 70.315 112.905 69.37C111.79 67.74 110.78 66.03 109.965 64.23C109.3 62.735 108.76 61.165 108.555 59.535C108.405 58.24 108.44 56.89 108.915 55.66C109.34 54.51 110.155 53.51 111.19 52.85C113.655 51.26 117.17 51.43 119.405 53.36C120.535 54.325 121.21 55.75 121.38 57.21C121.6 59.155 121.16 61.11 120.48 62.925C119.2 66.295 117.17 69.31 114.975 72.145ZM139.17 76.27C138.51 78.545 136.925 80.53 134.855 81.68C133.02 82.705 130.825 83.06 128.755 82.715C126.115 82.305 123.75 80.905 121.7 79.255C120.195 78.045 118.835 76.66 117.535 75.235C119.59 72.64 121.52 69.925 123 66.955C124.29 64.355 125.27 61.54 125.36 58.615C125.41 56.76 125.065 54.87 124.195 53.22C123.06 51.015 121.03 49.32 118.7 48.5C116.525 47.725 114.105 47.655 111.885 48.285C109.79 48.88 107.88 50.135 106.57 51.88C105.415 53.4 104.76 55.27 104.605 57.165C104.37 59.895 105.055 62.62 106.09 65.135C107.63 68.805 109.89 72.125 112.385 75.205C111.265 76.505 110.035 77.715 108.73 78.835C106.705 80.55 104.385 82.04 101.76 82.61C99.635 83.085 97.345 82.85 95.4 81.865C93.12 80.73 91.37 78.59 90.71 76.13C90.205 74.32 90.315 72.37 90.92 70.6C91.42 69.135 92.095 67.74 92.73 66.33C97.13 56.74 101.75 47.25 106.575 37.865C107.295 36.47 108.005 35.065 108.765 33.69C109.385 32.585 110.11 31.495 111.135 30.72C112.23 29.865 113.62 29.395 115.01 29.43C116.45 29.415 117.88 29.945 118.985 30.87C120.075 31.775 120.81 33.01 121.47 34.24C122.96 37.045 124.395 39.88 125.83 42.71C129.92 50.81 133.855 58.985 137.62 67.235C138.19 68.515 138.8 69.79 139.18 71.14C139.64 72.805 139.655 74.605 139.17 76.27Z" fill="#FF7977"/>
<path d="M93.6254 94.0201C94.8554 93.7401 96.2054 94.5551 96.5254 95.7751C96.9204 97.0251 96.1304 98.4801 94.8754 98.8451C93.6454 99.2801 92.1854 98.5251 91.7804 97.3001C91.3954 96.2651 91.8054 95.0201 92.7254 94.4051C92.9904 94.2151 93.3054 94.0901 93.6254 94.0201Z" fill="#FF7977"/>
<path d="M101.945 102.1C102.685 101.295 103.73 100.79 104.81 100.625C105.525 100.555 106.255 100.6 106.955 100.76C106.945 101.895 106.955 103.03 106.95 104.165C105.845 103.88 104.65 103.82 103.565 104.22C102.98 104.435 102.44 104.785 102.015 105.24C101.92 105.32 101.945 105.45 101.935 105.56C101.94 108.73 101.93 111.905 101.94 115.08C101.93 115.2 101.96 115.34 101.905 115.455C100.68 115.485 99.4553 115.46 98.2303 115.465C98.2303 110.63 98.2253 105.79 98.2353 100.955C99.2653 100.96 100.3 100.95 101.33 100.955C101.555 100.94 101.8 101.06 101.88 101.28C101.965 101.54 101.94 101.825 101.945 102.1Z" fill="#FF7977"/>
<path d="M128.36 102.11C129.34 101.095 130.76 100.595 132.155 100.595C133.63 100.56 135.14 100.995 136.275 101.95C137.03 102.54 137.58 103.37 137.835 104.295C138.16 105.425 138.13 106.615 138.125 107.775C138.125 110.335 138.125 112.9 138.125 115.46C136.89 115.46 135.655 115.47 134.42 115.455C134.42 112.895 134.42 110.335 134.42 107.77C134.42 106.82 134.465 105.79 133.96 104.945C133.605 104.335 132.91 104.035 132.235 103.965C130.955 103.76 129.615 104.27 128.735 105.205C128.64 105.3 128.56 105.42 128.57 105.56C128.56 105.955 128.62 106.355 128.585 106.75C128.535 107.29 128.61 107.825 128.595 108.365C128.575 109.385 128.58 110.4 128.59 111.42C128.52 112.765 128.64 114.12 128.56 115.46C127.33 115.455 126.1 115.46 124.87 115.46C124.87 110.62 124.86 105.785 124.875 100.945C125.825 100.95 126.78 100.945 127.73 100.95C127.975 100.935 128.245 101.07 128.31 101.32C128.37 101.58 128.355 101.845 128.36 102.11Z" fill="#FF7977"/>
<path d="M92.2701 115.46C92.2701 110.62 92.2601 105.785 92.2701 100.945C93.4951 100.95 94.7201 100.945 95.9451 100.945C95.9551 105.785 95.9451 110.62 95.9501 115.46C94.7251 115.46 93.5001 115.46 92.2701 115.46Z" fill="#FF7977"/>
<path d="M89.9852 100.95C89.0152 100.95 88.0402 100.955 87.0702 100.945C86.8152 100.945 86.4852 100.955 86.3602 101.225C86.2452 101.5 86.2902 101.81 86.2802 102.1C85.4702 101.24 84.3302 100.73 83.1652 100.615C81.3602 100.455 79.4902 100.955 78.0402 102.05C76.8452 102.93 75.9652 104.21 75.5002 105.61C75.2802 106.27 75.1652 106.96 75.0952 107.65V108.645C75.2002 110.725 76.1252 112.78 77.7352 114.12C78.9502 115.15 80.5152 115.725 82.1002 115.83H82.9252C84.1802 115.745 85.4202 115.225 86.2802 114.29C86.2902 114.585 86.2452 114.895 86.3552 115.175C86.4702 115.405 86.7402 115.465 86.9752 115.455C87.9752 115.455 88.9802 115.455 89.9852 115.45C89.9852 110.62 89.9902 105.785 89.9852 100.95ZM86.1652 110.94C85.4152 111.84 84.2452 112.37 83.0752 112.33C81.8202 112.34 80.5202 111.86 79.7052 110.875C78.9152 109.935 78.6752 108.63 78.8552 107.435C78.9902 106.47 79.4802 105.54 80.2602 104.945C80.9652 104.39 81.8552 104.1 82.7452 104.04C84.0702 103.925 85.4702 104.51 86.2702 105.58C86.3152 107.155 86.2702 108.74 86.2902 110.32C86.2752 110.525 86.3352 110.775 86.1652 110.94Z" fill="#FF7977"/>
<path d="M122.755 105.1C122.185 103.705 121.17 102.49 119.885 101.7C118.565 100.875 116.975 100.505 115.425 100.61C114.2 100.69 113.005 101.215 112.155 102.105C112.15 99.3949 112.155 96.6849 112.155 93.9749C110.92 93.9749 109.68 93.9699 108.445 93.9799C108.45 101.14 108.435 108.3 108.455 115.46C109.48 115.46 110.505 115.465 111.525 115.46C111.78 115.48 112.055 115.34 112.125 115.085C112.175 114.825 112.155 114.555 112.16 114.285C113.02 115.24 114.28 115.76 115.55 115.835H116.305C118.36 115.73 120.375 114.77 121.665 113.155C123.47 110.94 123.825 107.72 122.755 105.1ZM118.435 111.205C117.605 111.975 116.46 112.34 115.34 112.33C114.17 112.355 113.005 111.82 112.265 110.915C112.175 110.82 112.145 110.695 112.15 110.57C112.15 108.91 112.15 107.25 112.15 105.59C112.86 104.665 113.995 104.085 115.16 104.03C116.34 103.995 117.575 104.34 118.44 105.175C119.265 105.94 119.665 107.085 119.64 108.195C119.665 109.305 119.25 110.44 118.435 111.205Z" fill="#FF7977"/>
<path d="M153.25 103.305C151.68 101.305 148.99 100.295 146.485 100.665C145.44 100.83 144.445 101.33 143.715 102.1C143.705 99.39 143.715 96.68 143.71 93.97C142.475 93.97 141.245 93.97 140.01 93.97C140.01 101.13 140.01 108.29 140.01 115.45C140.985 115.455 141.96 115.45 142.93 115.455C143.185 115.46 143.505 115.44 143.635 115.18C143.75 114.9 143.705 114.585 143.715 114.285C144.57 115.22 145.8 115.735 147.05 115.825H147.885C149.915 115.715 151.905 114.765 153.19 113.175C154.24 111.905 154.81 110.285 154.9 108.65V107.68C154.79 106.11 154.255 104.54 153.25 103.305ZM150.365 110.79C149.385 112.05 147.66 112.52 146.13 112.275C145.195 112.09 144.295 111.585 143.74 110.8C143.68 110.19 143.735 109.575 143.715 108.96C143.73 107.835 143.685 106.705 143.735 105.58C144.295 104.805 145.195 104.31 146.12 104.105C147.83 103.79 149.82 104.465 150.68 106.045C151.465 107.505 151.385 109.46 150.365 110.79Z" fill="#FF7977"/>
</svg>
