<svg xmlns="http://www.w3.org/2000/svg" xmlns:xlink="http://www.w3.org/1999/xlink" width="160" height="64" viewBox="0 0 160 64">
  <defs>
    <clipPath id="clip-BUTTERFLY">
      <rect width="160" height="64"/>
    </clipPath>
  </defs>
  <g id="BUTTERFLY" clip-path="url(#clip-BUTTERFLY)">
    <g id="Group_11107" data-name="Group 11107" transform="translate(-1001 -3241)">
      <g id="Group_11099" data-name="Group 11099" transform="translate(1009 3249)">
        <path id="Path_8759" data-name="Path 8759" d="M163.208,298.018c.44,2.384,2.009,5.051,3.425,5.823a.907.907,0,0,0,.757.14c.547-.226,1.5-1.857,1.89-5.43.06-.545.1-1.1.13-1.675a28.1,28.1,0,0,1-6.361-1.086A9.788,9.788,0,0,0,163.208,298.018Z" transform="translate(-147.116 -266.904)"/>
        <path id="Path_8760" data-name="Path 8760" d="M86.766,131.775c-1.907-.677-4.654-.869-6.18.31a3.565,3.565,0,0,0-1.331,2.821c-.1,2.382,1.341,5.3,3.668,7.429a11.7,11.7,0,0,0,2.843,1.895,8.864,8.864,0,0,1,4.1-4.629,1.137,1.137,0,0,1,1.1,1.988,6.532,6.532,0,0,0-3.085,3.476,25.333,25.333,0,0,0,5.946,1.049,35.5,35.5,0,0,0-.921-7.258A9.5,9.5,0,0,0,86.766,131.775Z" transform="translate(-71.511 -118.417)"/>
        <path id="Path_8761" data-name="Path 8761" d="M282.97,296.885c.027.57.07,1.13.13,1.675.388,3.572,1.343,5.2,1.89,5.43a.907.907,0,0,0,.757-.14c1.416-.772,2.983-3.439,3.425-5.823a9.839,9.839,0,0,0,.161-2.227A28.118,28.118,0,0,1,282.97,296.885Z" transform="translate(-255.336 -266.913)"/>
        <path id="Path_8762" data-name="Path 8762" d="M45.117,0H4.883A4.883,4.883,0,0,0,0,4.883V45.117A4.883,4.883,0,0,0,4.883,50H45.117A4.883,4.883,0,0,0,50,45.117V4.883A4.883,4.883,0,0,0,45.117,0ZM40.045,25.6a14.2,14.2,0,0,1-3.834,2.468,11.7,11.7,0,0,1-.146,3.464c-.575,3.114-2.54,6.3-4.57,7.406a3.407,3.407,0,0,1-1.646.455,2.775,2.775,0,0,1-1.06-.209c-1.19-.49-2.727-2.152-3.284-7.287q-.1-.9-.141-1.84l-.4,0-.4,0q-.044.94-.141,1.84c-.308,2.834-1.128,6.4-3.284,7.287a2.775,2.775,0,0,1-1.06.209,3.407,3.407,0,0,1-1.646-.455c-2.03-1.108-4-4.293-4.57-7.406a11.7,11.7,0,0,1-.146-3.464A14.213,14.213,0,0,1,9.881,25.6c-2.846-2.605-4.533-6.132-4.405-9.2a5.814,5.814,0,0,1,2.213-4.528c1.914-1.479,5.259-1.74,8.324-.651a11.878,11.878,0,0,1,7.594,8.7,37.874,37.874,0,0,1,.983,7.867l.373,0,.373,0a37.873,37.873,0,0,1,.983-7.867,11.88,11.88,0,0,1,7.594-8.7c3.065-1.088,6.41-.826,8.324.651a5.813,5.813,0,0,1,2.213,4.528C44.578,19.465,42.891,22.991,40.045,25.6Z"/>
        <path id="Path_8763" data-name="Path 8763" d="M295.925,132.091a5.018,5.018,0,0,0-3.054-.851,9.639,9.639,0,0,0-3.127.542,9.5,9.5,0,0,0-6.144,7.079,35.566,35.566,0,0,0-.921,7.258,25.324,25.324,0,0,0,5.946-1.049,6.532,6.532,0,0,0-3.085-3.476,1.137,1.137,0,0,1,1.1-1.988,8.865,8.865,0,0,1,4.1,4.629,11.7,11.7,0,0,0,2.843-1.895c2.328-2.131,3.768-5.047,3.668-7.429A3.551,3.551,0,0,0,295.925,132.091Z" transform="translate(-255.075 -118.424)"/>
      </g>
      <g id="Group_11100" data-name="Group 11100" transform="translate(1071.602 3266.034)">
        <path id="Path_8764" data-name="Path 8764" d="M616.614,186.758a3.17,3.17,0,0,1,.6,1.98,3.1,3.1,0,0,1-1.083,2.54,4.73,4.73,0,0,1-3.072.888H608V179.52h4.884a4.583,4.583,0,0,1,2.984.861,3,3,0,0,1,1.048,2.46,2.929,2.929,0,0,1-.525,1.759,3.1,3.1,0,0,1-1.465,1.083A3.008,3.008,0,0,1,616.614,186.758Zm-7.531-1.5h3.641a3.646,3.646,0,0,0,2.309-.622,2.178,2.178,0,0,0,.781-1.812q0-2.361-3.091-2.362h-3.641v4.8Zm6.261,5.363a2.224,2.224,0,0,0,.755-1.847q0-2.54-3.108-2.54h-3.907v4.991h3.907A3.741,3.741,0,0,0,615.344,190.621Z" transform="translate(-608 -179.023)"/>
        <path id="Path_8765" data-name="Path 8765" d="M735.971,217.9v8.9h-1.048v-1.616a2.98,2.98,0,0,1-1.208,1.3,3.571,3.571,0,0,1-1.794.444,3.05,3.05,0,0,1-2.362-.87,3.685,3.685,0,0,1-.8-2.575V217.9h1.065v5.506a2.928,2.928,0,0,0,.533,1.936,2.058,2.058,0,0,0,1.652.622,2.749,2.749,0,0,0,2.1-.826,3.062,3.062,0,0,0,.781-2.193V217.9Z" transform="translate(-716.967 -213.655)"/>
        <path id="Path_8766" data-name="Path 8766" d="M822,193.162v5.293a2.071,2.071,0,0,0,.408,1.475,1.638,1.638,0,0,0,1.208.408,2.915,2.915,0,0,0,.959-.16v.977a4.741,4.741,0,0,1-1.154.142,2.5,2.5,0,0,1-1.838-.657,2.653,2.653,0,0,1-.666-1.972v-5.506H819.16v-.87h1.758v-2.362L822,189.52v2.771h2.629v.87H822Z" transform="translate(-798.539 -188.046)"/>
        <path id="Path_8767" data-name="Path 8767" d="M884.741,193.162v5.293a2.071,2.071,0,0,0,.408,1.475,1.638,1.638,0,0,0,1.208.408,2.915,2.915,0,0,0,.959-.16v.977a4.741,4.741,0,0,1-1.154.142,2.5,2.5,0,0,1-1.838-.657,2.653,2.653,0,0,1-.666-1.972v-5.506H881.9v-.87h1.758v-2.362l1.083-.408v2.771h2.629v.87h-2.629Z" transform="translate(-855.152 -188.046)"/>
        <path id="Path_8768" data-name="Path 8768" d="M952.137,220.23v.053a4.061,4.061,0,0,0,.826,2.744,3.015,3.015,0,0,0,2.406.95,4.5,4.5,0,0,0,2.931-1.1l.427.853a4.263,4.263,0,0,1-1.492.879,5.436,5.436,0,0,1-1.865.329,4.214,4.214,0,0,1-3.2-1.226A4.682,4.682,0,0,1,951,220.336a5.39,5.39,0,0,1,.524-2.425,3.9,3.9,0,0,1,1.465-1.634,4.059,4.059,0,0,1,2.167-.577,3.44,3.44,0,0,1,2.744,1.137,4.669,4.669,0,0,1,.985,3.161v.23h-6.749Zm1.03-2.9a3.476,3.476,0,0,0-.959,2.069h5.648a3.285,3.285,0,0,0-.8-2.087,2.514,2.514,0,0,0-1.9-.72A2.745,2.745,0,0,0,953.167,217.327Z" transform="translate(-917.504 -211.67)"/>
        <path id="Path_8769" data-name="Path 8769" d="M1058.881,215.772l-.054.977a4.062,4.062,0,0,0-.817-.071,2.387,2.387,0,0,0-2.016.861,3.253,3.253,0,0,0-.666,2.052v5.222h-1.065v-6.43a19.154,19.154,0,0,0-.142-2.469h1.03l.142,1.651a2.707,2.707,0,0,1,1.092-1.386,3.129,3.129,0,0,1,1.714-.479A3.935,3.935,0,0,1,1058.881,215.772Z" transform="translate(-1010.554 -211.67)"/>
        <path id="Path_8770" data-name="Path 8770" d="M1115.2,175.816a2.039,2.039,0,0,0-.408,1.456v1.4h2.291v.87h-2.291v8.028h-1.083v-8.028h-1.74v-.87h1.74v-1.6a2.7,2.7,0,0,1,.657-1.989,2.45,2.45,0,0,1,1.812-.657,4.543,4.543,0,0,1,1.1.143v.977a3.2,3.2,0,0,0-.906-.143A1.587,1.587,0,0,0,1115.2,175.816Zm3.854,11.758V174.5h1.065v13.072Z" transform="translate(-1062.754 -174.43)"/>
        <path id="Path_8771" data-name="Path 8771" d="M1222.873,217.9l-4.191,9.822a5.026,5.026,0,0,1-1.554,2.141,5.868,5.868,0,0,1-2.336.968l-.213-.853a5.35,5.35,0,0,0,1.927-.781,3.592,3.592,0,0,0,1.092-1.51l.373-.87-3.8-8.916h1.154l3.215,7.814,3.232-7.814h1.1Z" transform="translate(-1154.974 -213.655)"/>
        <path id="Path_8772" data-name="Path 8772" d="M1312.38,293.19h1.51v1.545h-1.51Z" transform="translate(-1243.593 -281.592)"/>
        <path id="Path_8773" data-name="Path 8773" d="M1353.966,215.924v8.9h-1.083v-1.705a2.89,2.89,0,0,1-1.181,1.358,3.634,3.634,0,0,1-1.892.471,3.86,3.86,0,0,1-2.087-.56,3.678,3.678,0,0,1-1.386-1.6,6.257,6.257,0,0,1,.009-4.867,3.819,3.819,0,0,1,1.395-1.634,3.74,3.74,0,0,1,2.069-.577,3.655,3.655,0,0,1,1.874.462,2.94,2.94,0,0,1,1.2,1.35v-1.6Zm-1.848,7.1a5.184,5.184,0,0,0,0-5.417,2.921,2.921,0,0,0-4.352.026,4.279,4.279,0,0,0-.781,2.727,4.1,4.1,0,0,0,.781,2.673,2.69,2.69,0,0,0,2.2.95A2.591,2.591,0,0,0,1352.119,223.028Z" transform="translate(-1273.794 -211.679)"/>
        <path id="Path_8774" data-name="Path 8774" d="M1457.51,180.25h1.438v1.386h-1.438Zm.16,12.575v-8.9h1.065v8.9Z" transform="translate(-1374.55 -179.682)"/>
      </g>
    </g>
  </g>
</svg>
