<svg xmlns="http://www.w3.org/2000/svg" xmlns:xlink="http://www.w3.org/1999/xlink" width="184" height="64" viewBox="0 0 184 64">
  <defs>
    <clipPath id="clip-dotscience">
      <rect width="184" height="64"/>
    </clipPath>
  </defs>
  <g id="dotscience" clip-path="url(#clip-dotscience)">
    <g id="Group_11109" data-name="Group 11109" transform="translate(-577 -3396)">
      <g id="Group_11104" data-name="Group 11104" transform="translate(585 3413)">
        <path id="Path_8817" data-name="Path 8817" d="M17.035,29.973a.805.805,0,0,1-.53-.131c-.53-.262-1.053-.661-.661-2.644v-.131H10.163a.792.792,0,0,1,0-1.584h7.264a1.053,1.053,0,1,0,0-2.107h-4.62a.74.74,0,0,1-.661-.792.836.836,0,0,1,.661-.792h7.657a1.053,1.053,0,0,0,0-2.107H4.359a.792.792,0,1,1,0-1.584H27.074a1.053,1.053,0,0,0,0-2.107H12.545a.729.729,0,0,1,.131-1.453h9.24a1.039,1.039,0,0,0,1.053-1.053,1.133,1.133,0,0,0-1.053-1.053H.792A1.193,1.193,0,0,1,0,11.485a.852.852,0,0,1,.792-.792H16.773a1.053,1.053,0,0,0,0-2.107H10.831a.852.852,0,0,1-.792-.792A.857.857,0,0,1,10.831,7h8.848a1.053,1.053,0,1,0,0-2.107H7.4A.735.735,0,0,1,6.6,4.235.852.852,0,0,1,7.4,3.443h8.318a.128.128,0,0,0,.131-.131V3.167c-.53-2.376,0-2.775.661-3.037C16.635,0,16.773,0,17.035,0a3.114,3.114,0,0,1,1.584.53L36.975,12.938a3.288,3.288,0,0,1,1.453,2.114,3.64,3.64,0,0,1-1.453,2.114L18.618,29.58A13.629,13.629,0,0,1,17.035,29.973ZM29.181,12.284a1.053,1.053,0,1,0,1.053,1.053A1.122,1.122,0,0,0,29.181,12.284Zm-3.56,0a1.053,1.053,0,1,0,1.053,1.053C26.805,12.807,26.275,12.284,25.621,12.284ZM7.264,21.655a.923.923,0,1,0,.923.923A.9.9,0,0,0,7.264,21.655ZM7.4,14a.923.923,0,1,0,.923.923A.99.99,0,0,0,7.4,14Z"/>
        <g id="Group_11103" data-name="Group 11103" transform="translate(48.398 6.238)">
          <path id="Path_8818" data-name="Path 8818" d="M79.4,15.959a4.748,4.748,0,0,0-3.587-1.542A5.569,5.569,0,0,0,70.29,20.27a5.44,5.44,0,0,0,5.543,5.7,4.7,4.7,0,0,0,3.636-1.584v1.446h2.265V9.06H79.406v6.9Zm.069,4.31a3.4,3.4,0,1,1-6.8,0,3.412,3.412,0,1,1,6.8,0Z" transform="translate(-70.29 -9.06)"/>
          <path id="Path_8819" data-name="Path 8819" d="M96.792,16.84a5.616,5.616,0,0,0-5.832,5.784,5.822,5.822,0,0,0,11.643,0A5.614,5.614,0,0,0,96.792,16.84Zm0,9.378a3.407,3.407,0,0,1-3.457-3.587,3.45,3.45,0,1,1,6.892,0A3.4,3.4,0,0,1,96.792,26.218Z" transform="translate(-76.728 -11.483)"/>
          <path id="Path_8820" data-name="Path 8820" d="M116.732,23.953a3.659,3.659,0,0,1-1.7.516c-.682,0-1.033-.255-1.033-1.646V17.357h3.553V15.27H114V11.38l-2.327.262v3.636H110.28v2.086h1.391v5.729c0,2.981,1.659,3.6,3.05,3.6a4.916,4.916,0,0,0,2.74-.7l.179-.11-.62-2.093Z" transform="translate(-82.745 -9.783)"/>
          <path id="Path_8821" data-name="Path 8821" d="M128.277,21.625l-.516-.2c-1.171-.42-1.852-.785-1.852-1.418,0-.668.709-1.033,1.384-1.033a3.843,3.843,0,0,1,2.665,1.074l.234.22,1.239-1.887-.193-.158a5.838,5.838,0,0,0-3.877-1.384c-2.169,0-3.8,1.356-3.8,3.16,0,2.155,1.68,2.933,3.4,3.539l.406.145c1.37.5,1.976.737,1.976,1.384,0,.709-.716,1.184-1.783,1.184a4.074,4.074,0,0,1-3.1-1.226l-.234-.227-1.219,1.838.179.158a6.464,6.464,0,0,0,4.372,1.591c2.513,0,4.131-1.308,4.131-3.333C131.713,22.934,130.274,22.383,128.277,21.625Z" transform="translate(-86.709 -11.483)"/>
          <path id="Path_8822" data-name="Path 8822" d="M147.131,24.954a3.671,3.671,0,0,1-2.857,1.267,3.3,3.3,0,0,1-3.388-3.587,3.325,3.325,0,0,1,3.415-3.608,3.689,3.689,0,0,1,2.816,1.274l.179.207,1.618-1.439-.172-.2a5.952,5.952,0,0,0-4.531-2.017,5.5,5.5,0,0,0-5.7,5.784,5.45,5.45,0,0,0,5.632,5.763,5.77,5.77,0,0,0,4.641-1.969l.165-.2-1.639-1.494Z" transform="translate(-91.537 -11.486)"/>
          <ellipse id="Ellipse_1067" data-name="Ellipse 1067" cx="1.57" cy="1.549" rx="1.57" ry="1.549" transform="translate(59.58 0.971)"/>
          <rect id="Rectangle_3795" data-name="Rectangle 3795" width="2.327" height="11.285" transform="translate(59.973 5.488)"/>
          <path id="Path_8823" data-name="Path 8823" d="M170.614,16.84a5.49,5.49,0,0,0-5.564,5.784A5.848,5.848,0,0,0,175.4,26.273l.158-.207-1.666-1.4-.172.213a3.6,3.6,0,0,1-2.9,1.336,3.245,3.245,0,0,1-3.367-2.789h8.338v-.269c0-.048.007-.124.014-.213.014-.151.028-.337.028-.516C175.826,19.195,173.636,16.84,170.614,16.84Zm-3.105,4.593a3.1,3.1,0,0,1,3.078-2.41,2.815,2.815,0,0,1,2.851,2.41Z" transform="translate(-99.803 -11.483)"/>
          <path id="Path_8824" data-name="Path 8824" d="M190.714,16.84a4.848,4.848,0,0,0-3.656,1.57V16.971H184.73V28.256h2.327V22.624c0-2.231,1.177-3.608,3.085-3.608,1.019,0,2.376.324,2.376,3.105v6.142h2.327V21.619C194.845,18.582,193.337,16.84,190.714,16.84Z" transform="translate(-105.932 -11.483)"/>
          <path id="Path_8825" data-name="Path 8825" d="M211.8,24.954a3.671,3.671,0,0,1-2.857,1.267,3.3,3.3,0,0,1-3.388-3.587,3.325,3.325,0,0,1,3.415-3.608,3.689,3.689,0,0,1,2.816,1.274l.179.207,1.618-1.439-.172-.2a5.952,5.952,0,0,0-4.531-2.017,5.5,5.5,0,0,0-5.7,5.784,5.45,5.45,0,0,0,5.632,5.763,5.77,5.77,0,0,0,4.641-1.969l.165-.2-1.639-1.494Z" transform="translate(-111.678 -11.486)"/>
          <path id="Path_8826" data-name="Path 8826" d="M226.434,16.84a5.49,5.49,0,0,0-5.564,5.784,5.848,5.848,0,0,0,10.349,3.649l.158-.207-1.666-1.4-.172.213a3.6,3.6,0,0,1-2.9,1.336,3.245,3.245,0,0,1-3.367-2.789h8.338v-.269c0-.048.007-.124.014-.213.014-.151.028-.337.028-.516C231.646,19.195,229.456,16.84,226.434,16.84Zm-3.1,4.593a3.1,3.1,0,0,1,3.078-2.41,2.815,2.815,0,0,1,2.851,2.41Z" transform="translate(-117.188 -11.483)"/>
          <path id="Path_8827" data-name="Path 8827" d="M240.987,29.08a1.57,1.57,0,1,0,0,3.14,1.57,1.57,0,0,0,0-3.14Z" transform="translate(-122.956 -15.295)"/>
        </g>
      </g>
    </g>
  </g>
</svg>
