<svg width="310" height="142" viewBox="0 0 310 142" fill="none" xmlns="http://www.w3.org/2000/svg">
<g clip-path="url(#clip0)">
<path d="M90.8828 60.9871C94.6103 60.9871 98.3378 60.9871 102.064 60.9871C102.232 60.9871 102.4 60.9969 102.567 60.9862C102.9 60.9648 103.037 61.1335 103.071 61.4468C103.142 62.0876 103.257 62.7249 103.301 63.3666C103.586 67.4936 103.104 71.5163 101.616 75.3961C100.292 78.8484 98.1203 81.6831 95.3255 84.067C91.8512 87.0311 87.8436 88.7885 83.3296 89.4356C78.2831 90.1594 73.3392 89.8006 68.6441 87.7594C59.4162 83.7493 53.7491 76.7938 52.283 66.7823C51.171 59.1851 53.3549 52.3813 58.2971 46.5112C62.0951 41.9995 66.9105 39.0862 72.6347 37.6885C75.5615 36.9736 78.5275 36.8621 81.5211 37.1432C86.102 37.5743 90.2362 39.1657 93.9513 41.8665C94.802 42.485 95.6117 43.1544 96.384 43.8702C96.6453 44.1121 96.697 44.2968 96.4223 44.5771C94.9483 46.0774 93.4929 47.5956 92.0215 49.0986C91.7174 49.4092 91.6996 49.3905 91.2716 49.0085C89.4479 47.3859 87.4049 46.1319 85.0997 45.3143C82.7731 44.4896 80.3725 44.1656 77.9139 44.2861C72.7498 44.5387 68.3935 46.563 64.8889 50.3598C62.4312 53.0222 60.8528 56.1639 60.2322 59.7367C59.2272 65.5265 60.4275 70.8237 64.0819 75.4639C66.8775 79.0135 70.5498 81.219 74.9827 82.099C78.8913 82.8746 82.7392 82.6113 86.4302 81.0681C89.6914 79.7043 92.3408 77.5667 94.0708 74.4206C95.049 72.6409 95.5716 70.7041 95.8695 68.7039C95.9346 68.2701 95.9033 68.2407 95.3995 68.2362C93.9664 68.2228 92.5325 68.2184 91.0995 68.2184C87.3246 68.2166 83.5489 68.2175 79.7741 68.2175C79.5833 68.2175 79.3916 68.2086 79.2007 68.2175C78.8735 68.2327 78.729 68.1041 78.7308 67.7569C78.7406 65.6524 78.7397 63.5478 78.7308 61.4441C78.729 61.1022 78.8645 60.9773 79.1981 60.9853C79.7946 60.9996 80.393 60.988 80.9896 60.988C84.2882 60.9871 87.585 60.9871 90.8828 60.9871Z" fill="#4486F4"/>
<path d="M205.017 59.5185C205.231 59.3302 205.153 59.1008 205.157 58.8973C205.168 58.3716 205.17 57.845 205.157 57.3193C205.15 57.0069 205.226 56.8293 205.591 56.8311C207.669 56.8409 209.747 56.8392 211.826 56.8329C212.125 56.832 212.273 56.9489 212.267 57.2524C212.263 57.4193 212.267 57.5871 212.267 57.7549C212.267 67.3906 212.274 77.0255 212.264 86.6612C212.261 89.3218 212.066 91.9637 211.238 94.5173C209.353 100.329 205.358 103.7 199.372 104.722C196.727 105.172 194.092 105.096 191.494 104.347C188.016 103.342 185.245 101.33 183.075 98.4578C182.367 97.5206 181.768 96.5156 181.282 95.4446C181.057 94.9483 181.057 94.9341 181.573 94.7172C183.4 93.9496 185.23 93.1874 187.062 92.4314C187.553 92.2288 187.568 92.2377 187.807 92.7268C188.632 94.4155 189.777 95.8293 191.36 96.8601C193.063 97.9687 194.932 98.3873 196.955 98.2293C198.406 98.1159 199.788 97.8018 201.047 97.0565C203.062 95.865 204.179 94.0299 204.747 91.8138C205.209 90.0091 205.171 88.1651 205.157 86.3238C205.156 86.2087 205.177 86.057 205.05 86.0043C204.806 85.9026 204.721 86.1418 204.602 86.2658C202.721 88.2365 200.378 89.2799 197.721 89.6307C194.67 90.0341 191.754 89.4789 189.046 88.0482C183.831 85.293 180.718 80.9633 179.89 75.1226C179.186 70.1593 180.516 65.6841 183.692 61.8016C185.983 59.0009 188.882 57.0828 192.414 56.2304C196.069 55.3477 199.576 55.6887 202.814 57.7495C203.419 58.1351 203.979 58.5814 204.482 59.099C204.64 59.2579 204.767 59.4784 205.017 59.5185ZM205.652 72.5236C205.673 71.3231 205.436 69.8915 204.896 68.5179C203.876 65.926 202.174 63.9767 199.515 62.9967C195.831 61.6392 191.596 63.0324 189.229 66.3339C187.674 68.5036 187.064 70.9375 187.234 73.5785C187.439 76.7568 188.711 79.405 191.309 81.298C195.198 84.13 200.566 83.5124 203.555 79.5147C205.043 77.5235 205.665 75.2601 205.652 72.5236Z" fill="#4486F4"/>
<path d="M123.061 55.7549C129.157 55.9994 134.228 58.6047 137.527 64.2223C139.388 67.389 140.001 70.8654 139.651 74.5149C139.307 78.0985 138.003 81.2866 135.614 83.982C132.238 87.7931 127.942 89.7147 122.881 89.7174C116.472 89.7201 111.418 87.0452 108.04 81.5338C104.381 75.5655 104.662 66.3965 110.731 60.5272C113.373 57.9719 116.547 56.4814 120.182 55.9557C121.035 55.8325 121.894 55.8183 123.061 55.7549ZM132.263 72.3863C132.279 71.1831 131.974 69.6498 131.33 68.1833C128.531 61.8027 120.12 60.5005 115.621 65.7521C112.627 69.2481 112.302 74.8345 114.868 78.7402C118.429 84.1596 125.983 84.5193 130.03 79.4488C131.581 77.5058 132.257 75.2531 132.263 72.3863Z" fill="#EA4537"/>
<path d="M159.706 89.7271C152.65 89.4549 147.267 86.439 144.196 79.9253C141.138 73.4375 142.644 65.4458 147.737 60.5128C150.414 57.92 153.638 56.4108 157.336 55.944C161.671 55.3978 165.725 56.2144 169.361 58.6742C173.747 61.6428 176.125 65.8394 176.646 71.1018C176.967 74.3452 176.477 77.4691 174.998 80.3671C172.157 85.9383 167.529 88.9613 161.351 89.6673C161.067 89.6994 160.779 89.7155 160.493 89.7253C160.231 89.7342 159.968 89.7271 159.706 89.7271ZM169.248 72.7449C169.245 70.5574 168.729 68.6732 167.661 66.948C164.193 61.35 156.274 60.952 152.276 66.1741C149.488 69.8166 149.406 75.2842 152.081 79.0667C155.49 83.8855 162.376 84.404 166.438 80.1235C168.391 78.0662 169.252 75.5635 169.248 72.7449Z" fill="#FBBD07"/>
<path d="M243.658 89.7368C239.505 89.6601 235.223 87.8706 231.923 83.9881C229.436 81.0615 228.193 77.6154 227.995 73.7999C227.8 70.0093 228.509 66.4017 230.544 63.1547C233.382 58.6269 237.503 56.151 242.837 55.8261C248.352 55.4905 252.645 57.7727 255.902 62.1586C257.243 63.9642 258.113 66.0063 258.909 68.085C259.074 68.5161 259.058 68.5277 258.483 68.766C254.731 70.3217 250.98 71.8756 247.227 73.4295C243.85 74.828 240.473 76.2249 237.095 77.6226C237.007 77.6591 236.921 77.7029 236.83 77.7323C236.494 77.8412 236.456 78.0331 236.622 78.3312C237.895 80.6134 239.701 82.2432 242.306 82.7805C246.344 83.6123 250.061 82.3922 252.601 78.7802C252.918 78.3294 252.923 78.3214 253.381 78.624C255.035 79.7173 256.688 80.8151 258.338 81.9147C258.783 82.2102 258.789 82.2262 258.494 82.6198C255.033 87.2404 250.215 89.7627 243.658 89.7368ZM235.173 72.1951C235.437 72.1049 235.595 72.0603 235.745 71.9987C240.283 70.1128 244.82 68.226 249.357 66.3374C250.405 65.901 250.429 65.834 249.732 64.9228C248.558 63.3885 246.937 62.6611 245.069 62.4228C241.354 61.9489 237.807 64.2748 236.262 67.2603C235.478 68.7749 235.131 70.385 235.173 72.1951Z" fill="#EA4537"/>
<path d="M217.201 63.733C217.201 55.6984 217.201 47.6639 217.202 39.6302C217.202 38.7038 217.113 38.7627 218.033 38.7645C220.04 38.7672 222.047 38.7699 224.054 38.7797C224.651 38.7823 224.652 38.7931 224.665 39.3661C224.667 39.4857 224.665 39.6053 224.665 39.7249C224.665 55.7458 224.666 71.7667 224.663 87.7875C224.663 88.7908 224.822 88.7086 223.753 88.7104C221.866 88.714 219.978 88.7113 218.091 88.7113C217.924 88.7113 217.757 88.7033 217.589 88.7095C217.328 88.7193 217.184 88.623 217.201 88.3382C217.212 88.1472 217.201 87.9553 217.201 87.7643C217.201 79.7539 217.201 71.7434 217.201 63.733Z" fill="#36A954"/>
</g>
<defs>
<clipPath id="clip0">
<rect width="207" height="68" fill="white" transform="translate(52 37)"/>
</clipPath>
</defs>
</svg>
