<svg width="310" height="142" viewBox="0 0 310 142" fill="none" xmlns="http://www.w3.org/2000/svg">
<g clip-path="url(#clip0)">
<path d="M235 43.553H208.534L210.163 39.0042H235V43.553Z" fill="#5082C3"/>
<path d="M164.446 39.002L189.018 39L190.627 43.5609C190.639 43.5549 164.454 43.567 164.454 43.5609C164.454 43.5549 164.438 39.002 164.446 39.002Z" fill="#5082C3"/>
<path d="M144.93 39.002C148.98 39.3925 152.501 40.8296 155.499 43.5589C155.499 43.5589 110.957 43.5629 110.957 43.5589C110.957 43.5529 110.957 39 110.957 39L144.93 39.002Z" fill="#5082C3"/>
<path d="M106.948 39.0024H76.0049V43.5513H106.948V39.0024Z" fill="#5082C3"/>
<path d="M235 52.089H205.5C205.5 52.089 207.109 47.5643 207.099 47.5623H235V52.089V52.089Z" fill="#5082C3"/>
<path d="M193.667 52.0951H164.444V47.5603H192.066L193.667 52.0951Z" fill="#5082C3"/>
<path d="M158.967 47.5603C159.555 49.0558 160.249 50.3339 160.249 52.087H110.967V47.5603H158.967Z" fill="#5082C3"/>
<path d="M106.947 47.5603H76.0039V52.087H106.947V47.5603Z" fill="#5082C3"/>
<path d="M202.484 60.6452L204.103 56.0984L226.252 56.1044V60.6352L202.484 60.6452Z" fill="#5082C3"/>
<path d="M195.089 56.0964L196.702 60.6453H173.158V56.0964H195.089Z" fill="#5082C3"/>
<path d="M160.641 56.0964C160.641 57.6563 160.445 59.2826 159.989 60.6473H146.495V56.0964H160.641Z" fill="#5082C3"/>
<path d="M97.9287 56.1187H84.6284V60.6454H97.9287V56.1187Z" fill="#5082C3"/>
<path d="M133.196 56.0964H119.918V60.6453H133.196V56.0964Z" fill="#5082C3"/>
<path d="M186.236 65.5586C186.236 65.5586 186.24 69.0024 186.236 69.0085H173.156V64.4818H198.081L199.629 68.7025C199.637 68.7046 201.121 64.4717 201.125 64.4797H226.244V69.0085H213.228C213.226 69.0024 213.22 65.5586 213.22 65.5586L212.017 69.0085L187.437 69.0024L186.236 65.5586Z" fill="#5082C3"/>
<path d="M119.919 64.4798H158.033V64.4778C157.199 65.9954 155.687 67.8371 154.251 69.0085C154.251 69.0085 119.917 69.0146 119.917 69.0085C119.919 69.0025 119.919 64.4878 119.919 64.4798Z" fill="#5082C3"/>
<path d="M97.9287 64.4795H84.6284V69.0082H97.9287V64.4795Z" fill="#5082C3"/>
<path d="M226.244 73.0159H213.229V77.5426H226.244V73.0159Z" fill="#5082C3"/>
<path d="M186.236 73.0159H173.158V77.5426C173.152 77.5406 186.24 77.5446 186.24 77.5426C186.24 77.5426 186.254 73.0159 186.236 73.0159Z" fill="#5082C3"/>
<path d="M210.6 73.0156C210.541 73.0096 209.075 77.5403 209.013 77.5424L190.474 77.5504C190.459 77.5424 188.844 73.0076 188.842 73.0156H210.6Z" fill="#5082C3"/>
<path d="M119.917 73.0159H154.187C155.751 74.3161 157.165 75.9203 158.273 77.5446C158.336 77.5426 119.919 77.5466 119.919 77.5446C119.919 77.5426 119.917 73.0199 119.917 73.0159Z" fill="#5082C3"/>
<path d="M97.9265 77.5426V73.0159H84.6504C84.6504 73.0159 84.6524 77.5426 84.6504 77.5426C84.6484 77.5426 97.9204 77.5426 97.9265 77.5426Z" fill="#5082C3"/>
<path d="M226.242 81.552H213.229V86.0807H226.242V81.552Z" fill="#5082C3"/>
<path d="M186.236 81.552H173.156V86.0787H186.236V81.552Z" fill="#5082C3"/>
<path d="M205.97 86.1028C205.974 86.0827 207.575 81.5499 207.6 81.554H191.84C191.812 81.5519 193.455 86.0827 193.455 86.0827C193.455 86.0827 205.966 86.1209 205.97 86.1028Z" fill="#5082C3"/>
<path d="M119.918 86.0807C119.918 86.0989 119.918 81.554 119.918 81.552H133.392C133.392 81.552 133.404 86.0827 133.392 86.0827C133.378 86.0807 119.918 86.0767 119.918 86.0807Z" fill="#5082C3"/>
<path d="M160.162 81.552C160.815 82.9167 160.879 84.541 161.008 86.1009H146.731V81.552H160.162Z" fill="#5082C3"/>
<path d="M97.9265 81.552H84.6504V86.0787H97.9265V81.552Z" fill="#5082C3"/>
<path d="M235 89.9131H213.229V94.4418H235V89.9131Z" fill="#5082C3"/>
<path d="M186.236 89.9131H164.444V94.4418H186.236V89.9131Z" fill="#5082C3"/>
<path d="M203.041 94.4438H196.395L194.8 89.9131H204.579L203.041 94.4438Z" fill="#5082C3"/>
<path d="M76.0015 89.9131V94.4398H106.922C106.935 94.4479 106.908 89.9151 106.922 89.9151C106.937 89.9171 75.9652 89.9131 76.0015 89.9131Z" fill="#5082C3"/>
<path d="M160.445 89.9131C160.12 91.4066 159.821 93.2281 158.727 94.4418L158.319 94.4398H110.964V89.9131H160.445Z" fill="#5082C3"/>
<path d="M200.029 102.988H199.417L197.862 98.4512H201.623L200.029 102.988Z" fill="#5082C3"/>
<path d="M235 98.4512H213.229V103H235V98.4512Z" fill="#5082C3"/>
<path d="M110.958 102.988V98.457C110.958 98.457 155.634 98.4631 155.761 98.4631C152.761 101.321 148.647 102.935 144.213 103L110.965 102.992" fill="#5082C3"/>
<path d="M186.236 98.4512H164.444V103H186.236V98.4512Z" fill="#5082C3"/>
<path d="M106.925 98.4692C106.925 98.4692 106.911 102.988 106.925 102.988C106.937 102.988 76.0119 103.006 76.0038 102.996C75.9957 102.988 76.0119 98.4551 76.0038 98.4551C75.9937 98.4571 106.911 98.4853 106.925 98.4692Z" fill="#5082C3"/>
</g>
<defs>
<clipPath id="clip0">
<rect width="159" height="64" fill="white" transform="translate(76 39)"/>
</clipPath>
</defs>
</svg>
