<?xml version="1.0" encoding="UTF-8"?>
<svg xmlns="http://www.w3.org/2000/svg" xmlns:xlink="http://www.w3.org/1999/xlink" width="120pt" height="60pt" viewBox="0 0 120 60" version="1.1">
<defs>
<linearGradient id="linear0" gradientUnits="userSpaceOnUse" x1="-622.011" y1="415.344" x2="-622.018" y2="415.337" gradientTransform="matrix(1168.1589,0,0,-1161.3224,726638.938,482368.563)">
<stop offset="0.18" style="stop-color:rgb(0%,32.156863%,80%);stop-opacity:1;"/>
<stop offset="1" style="stop-color:rgb(14.901961%,51.764706%,100%);stop-opacity:1;"/>
</linearGradient>
<linearGradient id="linear1" gradientUnits="userSpaceOnUse" x1="-621.563" y1="415.797" x2="-621.571" y2="415.789" gradientTransform="matrix(1168.1676,0,0,-1161.3223,726112.125,482903.781)">
<stop offset="0.18" style="stop-color:rgb(0%,32.156863%,80%);stop-opacity:1;"/>
<stop offset="1" style="stop-color:rgb(14.901961%,51.764706%,100%);stop-opacity:1;"/>
</linearGradient>
</defs>
<g id="surface1">
<path style=" stroke:none;fill-rule:nonzero;fill:rgb(14.509804%,21.960784%,34.509804%);fill-opacity:1;" d="M 61.199219 14 L 65.5 14 L 65.5 36 C 65.5 41.800781 62.898438 45.898438 56.898438 45.898438 C 55.101562 45.898438 53.398438 45.601562 51.699219 45.101562 L 51.699219 40.898438 C 53.101562 41.5 54.699219 41.699219 56.199219 41.699219 C 59.898438 41.699219 61.101562 39.5 61.101562 36.300781 Z M 73.398438 12.300781 C 74.199219 12.199219 75 12.5 75.601562 13.101562 C 76.199219 13.699219 76.398438 14.398438 76.398438 15.199219 C 76.398438 16.800781 75.101562 18.101562 73.5 18.101562 C 71.898438 18.101562 70.601562 16.800781 70.601562 15.199219 C 70.5 14.398438 70.800781 13.601562 71.398438 13 C 71.898438 12.5 72.699219 12.199219 73.398438 12.300781 Z M 71.300781 21.5 L 75.5 21.5 L 75.5 45.601562 L 71.300781 45.601562 Z M 81.699219 21.5 L 85.800781 21.5 L 85.800781 25.699219 C 87.199219 22.898438 89.601562 20.800781 94.398438 21.101562 L 94.398438 25.199219 C 89.101562 24.699219 85.800781 26.300781 85.800781 31.398438 L 85.800781 45.699219 L 81.699219 45.699219 Z M 113.800781 41.300781 C 112.300781 44.5 109.398438 46.101562 105.601562 46.101562 C 99.199219 46.101562 95.898438 40.601562 95.898438 33.5 C 95.898438 26.699219 99.300781 20.898438 106 20.898438 C 109.5 20.898438 112.199219 22.5 113.699219 25.601562 L 113.699219 21.398438 L 117.898438 21.398438 L 117.898438 45.5 L 113.699219 45.5 Z M 106.800781 42.300781 C 110.5 42.300781 113.898438 39.898438 113.898438 34.601562 L 113.898438 32.601562 C 113.898438 27.199219 110.898438 24.898438 107.300781 24.898438 C 102.601562 24.898438 100.199219 28 100.199219 33.601562 C 100.101562 39.398438 102.5 42.300781 106.800781 42.300781 Z M 106.800781 42.300781 "/>
<path style=" stroke:none;fill-rule:nonzero;fill:rgb(14.901961%,51.764706%,100%);fill-opacity:1;" d="M 39.699219 10.300781 L 20.800781 10.300781 C 20.800781 15 24.601562 18.898438 29.398438 18.898438 L 32.898438 18.898438 L 32.898438 22.300781 C 32.898438 27 36.699219 30.800781 41.398438 30.800781 L 41.398438 12 C 41.398438 11.101562 40.601562 10.300781 39.699219 10.300781 Z M 39.699219 10.300781 "/>
<path style=" stroke:none;fill-rule:nonzero;fill:url(#linear0);" d="M 30.398438 19.800781 L 11.398438 19.800781 C 11.398438 24.5 15.199219 28.300781 19.898438 28.300781 L 23.398438 28.300781 L 23.398438 31.699219 C 23.398438 36.398438 27.199219 40.199219 32 40.199219 L 32 21.398438 C 32 20.5 31.300781 19.800781 30.398438 19.800781 Z M 30.398438 19.800781 "/>
<path style=" stroke:none;fill-rule:nonzero;fill:url(#linear1);" d="M 21 29.199219 L 2 29.199219 C 2 33.898438 5.800781 37.800781 10.601562 37.800781 L 14.101562 37.800781 L 14.101562 41.199219 C 14.101562 45.898438 17.898438 49.699219 22.601562 49.699219 L 22.601562 30.800781 C 22.601562 29.898438 21.898438 29.199219 21 29.199219 Z M 21 29.199219 "/>
</g>
</svg>
