<svg xmlns="http://www.w3.org/2000/svg" xmlns:xlink="http://www.w3.org/1999/xlink" width="87" height="64" viewBox="0 0 87 64">
  <defs>
    <clipPath id="clip-NYC">
      <rect width="87" height="64"/>
    </clipPath>
  </defs>
  <g id="NYC" clip-path="url(#clip-NYC)">
    <g id="Group_11102" data-name="Group 11102" transform="translate(-373.564 -3241.762)">
      <path id="Path_6947" data-name="Path 6947" d="M137.826,811.649a16.173,16.173,0,0,1-3.325,4.965,13.8,13.8,0,0,1-5.766,3.512c-5.294,1.516-10.144.726-14.383-2.951a13.772,13.772,0,0,1-4.677-8.148c-.007-.037-.078-.062-.116-.091-.011-.176-.021-.349-.032-.525a5.968,5.968,0,0,1,.411-.763c.925-1.236,1.87-2.455,2.8-3.688q4.666-6.183,9.324-12.369a13.943,13.943,0,0,1,8.445,1.3,14.123,14.123,0,0,1,6.783,6.735c.155.322.356.623.539.934v.162l-8.566,3.069c-.2-.327-.356-.573-.512-.818a5.723,5.723,0,0,0-7-1.973,5.883,5.883,0,0,0-3.245,6.093,5.781,5.781,0,0,0,4.864,4.679,5.475,5.475,0,0,0,5.575-2.781c.238-.377.443-.457.836-.311,1.183.443,2.368.879,3.56,1.293,1.489.516,2.987,1.009,4.483,1.514Z" transform="translate(315.208 2467.345)"/>
      <path id="Path_6949" data-name="Path 6949" d="M120.334,804.518l-.025,15.022v1.046h-1.95c-1.927,0-3.862-.091-5.782.032a2.716,2.716,0,0,1-2.583-1.249c-2.535-3.3-5.138-6.552-7.712-9.827-.468-.594-.918-1.2-1.512-1.978v12.964H90.623V791.494h3.462c1.74,0,3.483.043,5.221-.023a1.43,1.43,0,0,1,1.3.658q3.333,4.22,6.671,8.436c.975,1.24,1.937,2.492,3.1,3.709V791.658a2.038,2.038,0,0,1,.3.263q3.306,4.306,6.6,8.609c.989,1.284,2,2.549,3,3.823Z" transform="translate(290.942 2467.411)"/>
      <path id="Path_6950" data-name="Path 6950" d="M103.664,804.51l-.055-.16q.014-6.416.03-12.832c2.512-.132,2.5-.121,3.976,1.939,1.274,1.774,2.59,3.519,3.9,5.3,1.74-2.336,3.416-4.6,5.116-6.851a1.024,1.024,0,0,1,.669-.4c3.855-.014,7.71,0,11.565.011a1.65,1.65,0,0,1-.285.123,14.611,14.611,0,0,0-8.575,5.371,13.668,13.668,0,0,0-2.978,7.232,30.6,30.6,0,0,0,.091,4.092l.03.525v11.667H106.53V819.5c0-3.371-.03-6.742.021-10.112a3.02,3.02,0,0,0-.79-2.217C105.013,806.326,104.36,805.4,103.664,804.51Z" transform="translate(307.612 2467.416)"/>
      <path id="Path_6951" data-name="Path 6951" d="M109.207,791.5q-.017,6.416-.032,12.832c-1-1.274-2.014-2.54-3-3.823q-3.309-4.3-6.6-8.61a2.027,2.027,0,0,0-.3-.263c.1-.053.2-.153.3-.153Q104.391,791.482,109.207,791.5Z" transform="translate(302.043 2467.433)"/>
      <path id="Path_6952" data-name="Path 6952" d="M109.594,808.314a30.6,30.6,0,0,1-.091-4.092,13.668,13.668,0,0,1,2.978-7.232,14.612,14.612,0,0,1,8.575-5.371,1.376,1.376,0,0,0,.285-.126h.788q-4.659,6.186-9.324,12.371c-.929,1.233-1.875,2.453-2.8,3.688A5.974,5.974,0,0,0,109.594,808.314Z" transform="translate(315.138 2467.442)"/>
    </g>
  </g>
</svg>
