<?xml version="1.0" encoding="UTF-8"?>
<svg xmlns="http://www.w3.org/2000/svg" xmlns:xlink="http://www.w3.org/1999/xlink" width="116pt" height="81pt" viewBox="0 0 116 81" version="1.1">
<g id="surface1">
<path style=" stroke:none;fill-rule:nonzero;fill:rgb(0%,63.137255%,87.843137%);fill-opacity:1;" d="M 48.101562 9 C 51.800781 5.101562 57 2.699219 62.699219 2.699219 C 70.300781 2.699219 76.898438 6.898438 80.398438 13.199219 C 83.5 11.800781 86.898438 11.101562 90.398438 11.101562 C 104.101562 11.101562 115.199219 22.300781 115.199219 36.101562 C 115.199219 49.898438 104.101562 61.101562 90.398438 61.101562 C 88.800781 61.101562 87.101562 60.898438 85.5 60.601562 C 82.398438 66.101562 76.5 69.898438 69.699219 69.898438 C 66.898438 69.898438 64.199219 69.199219 61.800781 68.101562 C 58.699219 75.5 51.300781 80.699219 42.800781 80.699219 C 33.898438 80.699219 26.300781 75.101562 23.398438 67.199219 C 22.101562 67.5 20.800781 67.601562 19.5 67.601562 C 8.898438 67.601562 0.300781 58.898438 0.300781 48.199219 C 0.300781 41 4.199219 34.800781 9.898438 31.398438 C 8.699219 28.699219 8.101562 25.699219 8.101562 22.5 C 8.101562 10.199219 18.101562 0.199219 30.398438 0.199219 C 37.601562 0.199219 44 3.601562 48.101562 9 "/>
<path style=" stroke:none;fill-rule:nonzero;fill:rgb(100%,100%,100%);fill-opacity:1;" d="M 16.898438 41.898438 C 16.800781 42.101562 16.898438 42.101562 16.898438 42.199219 C 17.101562 42.398438 17.300781 42.5 17.601562 42.601562 C 18.800781 43.199219 19.898438 43.398438 21 43.398438 C 23.398438 43.398438 24.800781 42.101562 24.800781 40.101562 C 24.800781 38.199219 23.101562 37.601562 21.601562 37.101562 L 21.5 37 C 20.300781 36.601562 19.300781 36.300781 19.300781 35.5 C 19.300781 34.800781 19.898438 34.398438 20.800781 34.398438 C 21.800781 34.398438 23 34.699219 23.800781 35.199219 C 23.800781 35.199219 24 35.300781 24.101562 35.101562 C 24.101562 35 24.5 33.898438 24.601562 33.800781 C 24.601562 33.699219 24.601562 33.601562 24.5 33.5 C 15.25 33.75 7.546875 26.449219 7.300781 17.199219 C 7.050781 7.949219 14.347656 0.25 23.601562 0 L 23.398438 0 C 21.199219 0 19.699219 1.300781 19.699219 3.199219 C 19.699219 5.199219 21.398438 5.800781 22.898438 6.300781 L 23.199219 6.398438 C 24.300781 6.699219 25.300781 7 25.300781 7.800781 C 25.300781 8.5 24.699219 9.101562 23.601562 9.101562 C 23.199219 9.101562 21.898438 9.101562 20.601562 8.199219 C 20.398438 8.101562 20.300781 8 20.199219 8 C 20.101562 8 20 7.898438 19.898438 8.101562 L 19.398438 9.300781 Z M 51.5 41.898438 C 51.398438 42.101562 51.5 42.101562 51.5 42.199219 C 51.699219 42.398438 51.898438 42.5 52.199219 42.601562 C 53.398438 43.199219 54.5 43.398438 55.601562 43.398438 C 58 43.398438 59.398438 42.101562 59.398438 40.101562 C 59.398438 38.199219 57.699219 37.601562 56.199219 37.101562 L 56 37 C 54.800781 36.601562 53.800781 36.300781 53.800781 35.5 C 53.800781 34.800781 54.398438 34.398438 55.300781 34.398438 C 56.300781 34.398438 57.5 34.699219 58.300781 35.199219 C 58.300781 35.199219 58.5 35.300781 58.601562 35.101562 C 58.601562 35 59 33.898438 59.101562 33.800781 C 59.101562 33.699219 59.101562 33.601562 59 33.5 C 49.75 33.75 42.046875 26.449219 41.800781 17.199219 C 41.550781 7.949219 48.847656 0.25 58.101562 0 L 57.898438 0 C 55.699219 0 54.199219 1.300781 54.199219 3.199219 C 54.199219 5.199219 55.898438 5.800781 57.398438 6.300781 L 57.699219 6.398438 C 58.800781 6.699219 59.800781 7 59.800781 7.800781 C 59.800781 8.5 59.199219 9.101562 58.101562 9.101562 C 57.699219 9.101562 56.398438 9.101562 55.101562 8.199219 C 54.898438 8.101562 54.800781 8 54.699219 8 C 54.699219 8 54.5 7.898438 54.398438 8.101562 L 54 9.300781 Z M 75 38 C 75 39.101562 74.800781 40 74.398438 40.699219 C 74 41.300781 73.398438 41.601562 72.5 41.601562 C 71.601562 41.601562 71 41.300781 70.601562 40.699219 C 70.199219 40 70 39.101562 70 38 C 70 36.898438 70.199219 36 70.601562 35.300781 C 71 34.699219 71.601562 34.398438 72.5 34.398438 C 73.398438 34.398438 74 34.699219 74.398438 35.300781 C 74.800781 35.898438 75 36.800781 75 38 Z M 77 35.898438 C 76.800781 35.199219 76.5 34.699219 76.101562 34.199219 C 75.699219 33.699219 75.199219 33.300781 74.601562 33.101562 C 74 32.800781 73.300781 32.699219 72.5 32.699219 C 71.699219 32.699219 71 32.800781 70.398438 33.101562 C 69.800781 33.398438 69.300781 33.800781 68.898438 34.199219 C 68.5 34.699219 68.199219 35.300781 68 35.898438 C 67.800781 36.601562 67.699219 37.300781 67.699219 38 C 67.699219 38.800781 67.800781 39.5 68 40.101562 C 68.199219 40.800781 68.5 41.300781 68.898438 41.800781 C 69.300781 42.300781 69.800781 42.699219 70.398438 42.898438 C 71 43.199219 71.699219 43.300781 72.5 43.300781 C 73.300781 43.300781 74 43.199219 74.601562 42.898438 C 75.199219 42.601562 75.699219 42.199219 76.101562 41.800781 C 76.5 41.300781 76.800781 40.699219 77 40.101562 C 77.199219 39.398438 77.300781 38.699219 77.300781 38 C 77.300781 37.199219 77.199219 36.5 77 35.898438 Z M 93.199219 41.300781 C 93.101562 41.101562 92.898438 41.199219 92.898438 41.199219 L 92 41.5 C 91.699219 41.601562 91.300781 41.601562 90.898438 41.601562 C 89.898438 41.601562 89.199219 41.300781 88.601562 40.800781 C 88.101562 40.199219 87.800781 39.300781 87.800781 38.101562 C 87.800781 37 88.101562 36.101562 88.601562 35.5 C 89.101562 34.898438 89.800781 34.5 90.800781 34.5 C 91.601562 34.5 92.199219 34.601562 92.898438 34.800781 C 92.898438 34.800781 93.101562 34.898438 93.101562 34.699219 L 93.601562 33.398438 C 93.699219 33.300781 93.5 33.199219 93.5 33.199219 C 93.199219 33.101562 92.601562 32.898438 92.199219 32.898438 C 91.800781 32.800781 91.300781 32.800781 90.699219 32.800781 C 89.898438 32.800781 89.101562 32.898438 88.5 33.199219 C 87.898438 33.5 87.300781 33.898438 86.898438 34.300781 C 86.5 34.800781 86.199219 35.398438 85.898438 36 C 85.699219 36.699219 85.601562 37.398438 85.601562 38.101562 C 85.601562 39.699219 86 41.101562 86.898438 42 C 87.800781 43 89.101562 43.5 90.800781 43.5 C 78.789062 56.5625 58.460938 57.414062 45.398438 45.398438 C 32.339844 33.386719 31.488281 13.0625 43.5 0 C 43.5 0 43.601562 -0.101562 43.601562 -0.199219 L 43.101562 -1.699219 Z M 96.601562 36.898438 C 96.699219 36.300781 96.898438 35.699219 97.101562 35.300781 C 97.5 34.699219 98.101562 34.300781 99 34.300781 C 99.898438 34.300781 100.5 34.601562 100.898438 35.300781 C 101.199219 35.699219 101.300781 36.300781 101.300781 36.898438 Z M 103.199219 35.5 C 103 34.898438 102.601562 34.199219 102.300781 33.898438 C 101.898438 33.398438 101.5 33.101562 101 32.898438 C 100.5 32.699219 99.800781 32.5 99.101562 32.5 C 98.300781 32.5 97.5 32.601562 96.898438 32.898438 C 96.300781 33.199219 95.800781 33.601562 95.398438 34.101562 C 95 34.601562 94.699219 35.199219 94.5 35.800781 C 94.300781 36.5 94.199219 37.199219 94.199219 37.898438 C 94.199219 38.699219 94.300781 39.398438 94.5 40 C 94.699219 40.601562 95 41.199219 95.5 41.699219 C 95.898438 42.199219 96.5 42.601562 97.199219 42.800781 C 97.898438 43.101562 98.699219 43.199219 99.601562 43.199219 C 101.5 43.199219 102.5 42.800781 103 42.5 C 103.101562 42.5 103.101562 42.398438 103.101562 42.199219 L 102.699219 41 C 102.601562 40.800781 102.398438 40.898438 102.398438 40.898438 C 101.898438 41.101562 101.199219 41.398438 99.699219 41.398438 C 98.699219 41.398438 97.898438 41.101562 97.398438 40.601562 C 96.898438 40.101562 96.699219 39.398438 96.601562 38.398438 L 103.300781 38.398438 C 103.300781 38.398438 103.5 38.398438 103.5 38.199219 C 103.5 38.300781 103.699219 37 103.199219 35.5 Z M 43.199219 36.898438 C 43.300781 36.300781 43.5 35.699219 43.699219 35.300781 C 44.101562 34.699219 44.699219 34.300781 45.601562 34.300781 C 46.5 34.300781 47.101562 34.601562 47.5 35.300781 C 47.800781 35.699219 47.898438 36.300781 47.898438 36.898438 Z M 49.898438 35.5 C 49.699219 34.898438 49.300781 34.199219 49 33.898438 C 48.601562 33.398438 48.199219 33.101562 47.699219 32.898438 C 47.199219 32.699219 46.5 32.5 45.800781 32.5 C 45 32.5 44.199219 32.601562 43.601562 32.898438 C 43 33.199219 42.5 33.601562 42.101562 34.101562 C 41.699219 34.601562 41.398438 35.199219 41.199219 35.800781 C 41 36.5 40.898438 37.199219 40.898438 37.898438 C 40.898438 38.699219 41 39.398438 41.199219 40 C 41.398438 40.601562 41.699219 41.199219 42.199219 41.699219 C 42.601562 42.199219 43.199219 42.601562 43.898438 42.800781 C 44.601562 43.101562 45.398438 43.199219 46.300781 43.199219 C 48.199219 43.199219 49.199219 42.800781 49.699219 42.5 C 49.800781 42.5 49.800781 42.398438 49.800781 42.199219 L 49.398438 41 L 49 41 C 48.5 41.199219 47.800781 41.5 46.300781 41.5 C 45.300781 41.5 44.5 41.199219 44 40.699219 C 43.5 40.199219 43.300781 39.5 43.199219 38.5 L 49.898438 38.5 C 49.898438 38.5 50.101562 38.5 50.101562 38.300781 C 50.101562 38.300781 50.300781 37 49.898438 35.5 Z M 28.800781 41.199219 C 28.5 41 28.5 40.898438 28.398438 40.800781 C 28.300781 40.601562 28.199219 40.300781 28.199219 39.898438 C 28.199219 39.300781 28.398438 38.898438 28.800781 38.601562 C 28.800781 38.601562 29.398438 38.101562 30.699219 38.101562 C 31.699219 38.101562 32.5 38.300781 32.5 38.300781 L 32.5 41.300781 C 32.5 41.300781 31.699219 41.5 30.699219 41.5 C 29.398438 41.699219 28.800781 41.199219 28.800781 41.199219 Z M 31.5 36.601562 L 30.5 36.601562 C 29.898438 36.601562 29.398438 36.699219 28.898438 36.800781 C 28.398438 36.898438 27.898438 37.199219 27.5 37.398438 C 27.101562 37.699219 26.800781 38.101562 26.5 38.5 C 26.300781 38.898438 26.101562 39.5 26.101562 40 C 26.101562 40.601562 26.199219 41.101562 26.398438 41.5 C 26.601562 41.898438 26.898438 42.300781 27.300781 42.5 C 27.699219 42.800781 28.101562 43 28.699219 43.101562 C 29.199219 43.199219 29.800781 43.300781 30.5 43.300781 C 31.199219 43.300781 31.898438 43.199219 32.5 43.101562 L 34.199219 42.800781 C 34.398438 42.800781 34.5 42.699219 34.699219 42.699219 C 34.898438 42.699219 34.898438 42.5 34.898438 42.5 L 34.898438 36.398438 C 34.898438 35.101562 34.5 34.101562 33.800781 33.5 C 33.101562 32.898438 32.101562 32.601562 30.699219 32.601562 C 21.699219 32.542969 14.445312 25.203125 14.5 16.199219 C 14.554688 7.199219 21.898438 -0.0546875 30.898438 0 C 30.898438 0 29.398438 0.300781 28.800781 0.800781 C 28.800781 0.800781 28.699219 0.898438 28.699219 1.101562 L 29.199219 2.398438 C 29.300781 2.601562 29.398438 2.5 29.398438 2.5 C 29.398438 2.5 29.5 2.5 29.5 2.398438 C 30.800781 1.699219 32.398438 1.699219 32.398438 1.699219 C 33.101562 1.699219 33.699219 1.800781 34 2.101562 C 34.398438 2.398438 34.5 2.800781 34.5 3.699219 L 34.5 4 C 34 3.800781 33.5 3.800781 33.5 3.800781 Z M 85.199219 33.101562 C 85.300781 32.898438 85.101562 32.898438 85.101562 32.898438 C 85 32.898438 84.398438 32.699219 84 32.699219 C 74.96875 32.617188 67.71875 25.230469 67.800781 16.199219 C 67.882812 7.171875 75.269531 -0.0820312 84.300781 0 C 83.898438 0.199219 83.398438 0.5 83.199219 0.800781 L 83.199219 33 C 83.199219 32.898438 83.101562 32.800781 83 32.800781 L 81.300781 32.800781 C 81.199219 32.800781 81.101562 32.898438 81.101562 33 L 81.101562 42.898438 C 81.101562 43 81.199219 43.101562 81.300781 43.101562 L 81 43.101562 C 81.101562 43.101562 81.199219 43 81.199219 42.898438 L 81.199219 37.898438 C 70.734375 48.476562 53.675781 48.566406 43.101562 38.101562 C 32.523438 27.632812 32.433594 10.578125 42.898438 0 C 43 -0.398438 43.199219 -0.699219 43.5 -1 C 43.699219 -1.199219 44 -1.398438 44.300781 -1.5 C 44.601562 -1.601562 45 -1.601562 45.199219 -1.601562 C 45.640625 11.296875 35.546875 22.109375 22.648438 22.550781 C 9.753906 22.992188 -1.058594 12.894531 -1.5 0 C -1.398438 0 -1.300781 -0.101562 -1.300781 -0.199219 C -1 -0.5 -0.699219 -1.398438 -0.699219 -1.601562 M -17.101562 -6.199219 C -17.300781 -6.300781 -17.5 -6.300781 -17.800781 -6.398438 C -18.101562 -6.398438 -18.398438 -6.5 -18.699219 -6.5 C -19.898438 -6.5 -20.898438 -6.199219 -21.5 -5.5 C -22.199219 -4.800781 -22.601562 -3.800781 -22.800781 -2.5 L -22.898438 -1.898438 L -24.398438 -1.898438 C -24.398438 -1.898438 -24.601562 -1.898438 -24.601562 -1.699219 L -24.898438 -0.300781 C -24.898438 -0.199219 -24.898438 -0.101562 -24.699219 -0.101562 L -23.199219 -0.101562 L -24.699219 8.199219 C -24.800781 8.898438 -25 9.398438 -25.101562 9.800781 C -25.199219 10.199219 -25.398438 10.5 -25.601562 10.699219 C -25.800781 10.898438 -25.898438 11.101562 -26.199219 11.199219 C -26.398438 11.300781 -26.699219 11.300781 -27 11.300781 C -27.199219 11.300781 -27.398438 11.300781 -27.5 11.199219 C -27.699219 11.199219 -27.699219 11.101562 -27.898438 11.101562 C -27.898438 11.101562 -28.101562 11 -28.101562 11.199219 C -28.199219 11.300781 -28.5 12.398438 -28.601562 12.601562 C -28.601562 12.699219 -28.601562 12.800781 -28.5 12.898438 C -28.300781 13 -28.199219 13 -27.898438 13.101562 C -27.5 13.199219 -27.199219 13.199219 -26.898438 13.199219 C -26.300781 13.199219 -25.699219 13.101562 -25.300781 12.898438 C -28.863281 2.351562 -23.199219 -9.085938 -12.648438 -12.648438 C -2.101562 -16.210938 9.335938 -10.546875 12.898438 0 C 13.300781 -0.398438 13.5 -0.898438 13.800781 -1.5 C 14 -2.101562 14.199219 -2.898438 14.398438 -3.699219 L 15.898438 -12.199219 L 67 -12.199219 C 67 -12.199219 67.199219 -12.199219 67.199219 -12.398438 L 67.398438 -13.800781 C 67.398438 -13.898438 67.398438 -14 67.199219 -14 L 65.101562 -14 C 65.101562 -14 65.199219 -14.800781 65.5 -15.5 C 65.601562 -15.800781 65.800781 -16 66 -16.199219 C 66.199219 -16.398438 66.398438 -16.5 66.601562 -16.5 C 66.800781 -16.601562 67.101562 -16.601562 67.300781 -16.601562 C 67.5 -16.601562 67.699219 -16.601562 67.800781 -16.5 C 68 -16.5 68.101562 -16.398438 68.101562 -16.398438 C 68.300781 -16.300781 68.300781 -16.398438 68.398438 -16.5 L 68.898438 -17.898438 C 69 -18.101562 68.800781 -18.199219 68.800781 -18.199219 Z M 39 42.898438 C 39 43 38.898438 43.101562 38.800781 43.101562 L 37 43.101562 C 36.898438 43.101562 36.800781 43 36.800781 42.898438 L 36.800781 28.699219 C 36.800781 28.601562 36.898438 28.5 37 28.5 L 38.800781 28.5 C 38.898438 28.5 39 28.601562 39 28.699219 Z M 39 42.898438 "/>
</g>
</svg>
