<svg xmlns="http://www.w3.org/2000/svg" xmlns:xlink="http://www.w3.org/1999/xlink" width="112" height="64" viewBox="0 0 112 64">
  <defs>
    <clipPath id="clip-smarter">
      <rect width="112" height="64"/>
    </clipPath>
  </defs>
  <g id="smarter" clip-path="url(#clip-smarter)">
    <g id="Group_11105" data-name="Group 11105" transform="translate(-863.628 -3419)">
      <g id="Group_7018" data-name="Group 7018" transform="translate(872.628 3438)">
        <path id="Path_6405" data-name="Path 6405" d="M533.915,791.416c1.284.077,2.575.095,3.851.239a20.127,20.127,0,0,1,6.775,1.9c.684.341.755.52.408,1.181-.254.479-.511.958-.765,1.437a.591.591,0,0,1-.889.288,22.9,22.9,0,0,0-10.926-2.157,17.192,17.192,0,0,0-6.067.846,3.128,3.128,0,0,0-2.23,2.177,2.191,2.191,0,0,0,1.116,2.546,8.818,8.818,0,0,0,3.7.822c2.713.16,5.43.241,8.139.424a18.02,18.02,0,0,1,3.208.521,2.786,2.786,0,0,1,1.958,3.871c-1.6-1.069-3.445-1.094-5.259-1.2-3.084-.189-6.177-.27-9.253-.54a15.957,15.957,0,0,1-4.046-.921c-3.042-1.11-3.67-3.776-3.029-6.227A5.476,5.476,0,0,1,523.3,793.3a14.346,14.346,0,0,1,5.9-1.761c.72-.081,1.451-.083,2.177-.12.712.039,1.422.089,2.134.114A1.346,1.346,0,0,0,533.915,791.416Z" transform="translate(-520.377 -791.416)"/>
        <path id="Path_6406" data-name="Path 6406" d="M542.3,797.072c1.66.3,3.171,2.124,2.841,3.514a4.106,4.106,0,0,1-.842,1.593,9.125,9.125,0,0,1-5.01,2.832,26.507,26.507,0,0,1-8,.586,29.557,29.557,0,0,1-8.106-1.353,16.581,16.581,0,0,1-1.7-.68.694.694,0,0,1-.365-.467c-.043-.641-.018-1.286-.018-2.021.191.081.323.126.444.191a20.026,20.026,0,0,0,6.927,2.094,33.555,33.555,0,0,0,7.625.136,10.653,10.653,0,0,0,4.977-1.463,3.393,3.393,0,0,0,1.331-4.681C542.376,797.267,542.345,797.178,542.3,797.072Z" transform="translate(-519.671 -785.92)"/>
        <path id="Path_6407" data-name="Path 6407" d="M539.87,803.216l.2-.043c.2.039.428.193.517-.148l.264-.089.13-.045.327-.1.079.1-.032-.1.085-.047.27-.11.253-.1.252-.12.166-.077.233-.1a.116.116,0,0,1,.089-.045l.126.11.095-.239a6.368,6.368,0,0,0,2.413-2.232c.158,1.794-1.167,3.561-3.309,4.478l-.432.2-.024.02-.03-.006-.465.2-.349.112-1.268.4-.03.016-.032-.01c-.428.065-.86.12-1.286.2a3.18,3.18,0,0,0-.495.181h0l-.11.008-.152.016q-.887.1-1.779.2l-.1.01-.089.006-1.039.034-2.419-.014-1.134-.039-1.927-.16-.231-.032c-.187-.154-.373-.361-.6-.045l-.3-.055-.408-.053-.408-.055-1.078-.2-.15-.018-.274-.049-.237-.053a1.237,1.237,0,0,0-.3-.2c-.444-.134-.891-.252-1.339-.361-.069-.018-.158.043-.237.069l-.378-.118-.655-.233-.144-.061-.215-.225-.6-.1-.122-.079a7.693,7.693,0,0,1,.008-.954,6.232,6.232,0,0,1,.213-.828.113.113,0,0,1,.093.03c.081.1.146.256.246.286.331.093.674.138,1.013.2l.357.106c.375.14.743.294,1.122.414a2.247,2.247,0,0,0,.517.035l.2.065c.063.067.118.183.189.191.6.077,1.209.134,1.814.2l.252.03.2.018.4.063c.14.367.321.329.526.053l.205.016a1.238,1.238,0,0,0,.371.146c.9.044,1.808.069,2.711.1l.254,0,.444,0,.189,0,1.532,0,.789-.012.256,0a.094.094,0,0,1,.083-.006l.073.166.112-.173a.046.046,0,0,1,.063,0c.635-.033,1.3.183,1.893-.2l.189-.034c.371.355.625-.041.925-.144l.166-.022.345-.091.219-.033.028.069,0-.071.026-.008Z" transform="translate(-519.591 -783.254)"/>
        <path id="Path_6408" data-name="Path 6408" d="M536.576,806.932l-.96.047-.672.059-3.768.006-.412-.12c-.428-.377-.885-.225-1.341-.073l-.185-.022a1.238,1.238,0,0,0-.388-.2c-.315-.028-.635-.006-.952,0a.6.6,0,0,1-.085,0c-.408-.4-.911-.219-1.372-.3l-.071.13.209.122a21.354,21.354,0,0,1-5.077-1.416.544.544,0,0,1-.392-.611c.026-.436.006-.874.006-1.388.6.221,1.122.438,1.662.609.818.262,1.648.493,2.472.738-.035.035-.108.091-.1.1a.793.793,0,0,0,1.132.075l3.577.455c.144.1.278.282.43.3a4.983,4.983,0,0,0,.887-.045c.325.055.72.538.931-.146l1.5,0c.156.081.318.237.469.231,1.059-.045,2.116-.118,3.171-.2.306-.024.6-.136.909-.154a4.775,4.775,0,0,1,.8.091l-.239-.438c.767-.215,1.542-.4,2.3-.649a8.288,8.288,0,0,0,4.121-2.654l.118.051a5.033,5.033,0,0,1-3.474,4.119,14.808,14.808,0,0,1-4.9,1.236Z" transform="translate(-519.669 -781.627)"/>
        <g id="Group_7016" data-name="Group 7016" transform="translate(33.943 15.216)">
          <path id="Path_6409" data-name="Path 6409" d="M565.017,799.2c-.408,0-.418.234-.416.532.006,1.238,0,2.478,0,3.719v2.171l-.113.022a1.874,1.874,0,0,1-.112-.162c-1.106-1.968-2.22-3.932-3.31-5.909-.183-.333-.44-.458-.74-.333a.714.714,0,0,0-.274.552c-.018,2.463-.008,4.925-.014,7.388,0,.343.079.548.479.55s.408-.246.408-.54q-.006-2.751,0-5.5c0-.136.02-.27.041-.556.477.852.872,1.562,1.27,2.27.747,1.331,1.5,2.66,2.238,4a.533.533,0,0,0,.718.29c.13-.055.231-.341.231-.522.016-2.479.008-4.959.014-7.44C565.439,799.419,565.417,799.2,565.017,799.2Z" transform="translate(-515.777 -799.08)"/>
          <path id="Path_6410" data-name="Path 6410" d="M551.64,799.387c-1.118-.156-2.264-.126-3.4-.193-.4-.023-.534.116-.53.523.014,2.5.01,4.995,0,7.491,0,.319.051.515.438.517s.471-.166.467-.495c-.01-.814.014-1.631-.012-2.445-.012-.387.085-.532.5-.53,1.573,0,1.566-.012,2.2,1.422.262.59.564,1.161.832,1.747.187.408.519.29.832.264a1.761,1.761,0,0,0-.057-.566c-.44-.972-.9-1.932-1.386-2.952.15-.061.225-.093.3-.122a1.562,1.562,0,0,0,1.195-1.68c.006-.424.01-.85,0-1.274C553.018,800.1,552.634,799.526,551.64,799.387Zm.489,2.973a.914.914,0,0,1-.795.978,24.707,24.707,0,0,1-2.477.122c-.077,0-.183-.152-.231-.254a.806.806,0,0,1-.01-.3v-2.963a24.91,24.91,0,0,1,2.607.162c.712.114.9.459.911,1.191C552.139,801.649,552.137,802.006,552.129,802.361Z" transform="translate(-527.755 -799.076)"/>
          <path id="Path_6411" data-name="Path 6411" d="M570.052,803.691c-.647.014-1.292.018-1.936,0-.343-.01-.4.166-.378.444.034.459.384.3.619.3,1.24.016,1.24.008,1.218,1.244-.016.863-.329,1.254-1.181,1.366a4.371,4.371,0,0,1-1.167,0c-.836-.116-1.126-.483-1.13-1.347q-.006-2.141,0-4.281c0-.988.27-1.329,1.24-1.445a4.234,4.234,0,0,1,1.26.061,1.051,1.051,0,0,1,.974,1.116c.012.136-.043.318.026.4a.644.644,0,0,0,.432.209c.126,0,.343-.106.371-.209a1.743,1.743,0,0,0-1.256-2.224,4.71,4.71,0,0,0-2.664.01,1.548,1.548,0,0,0-1.284,1.711c-.008.814,0,1.631,0,2.445h0c0,.868-.01,1.733,0,2.6a1.486,1.486,0,0,0,1.138,1.56,4.84,4.84,0,0,0,2.958.006,1.5,1.5,0,0,0,1.12-1.524c.01-.678,0-1.359.008-2.039C570.427,803.819,570.352,803.683,570.052,803.691Z" transform="translate(-510.77 -799.133)"/>
          <path id="Path_6412" data-name="Path 6412" d="M541.751,803.357c-.743-.29-1.489-.574-2.23-.862a1.3,1.3,0,0,1,.363-2.547c.219-.02.442-.014.663-.012.871.006,1.633.4,1.459,1.372-.014.081-.01.217.033.242a1.3,1.3,0,0,0,.507.2.4.4,0,0,0,.331-.2,1.731,1.731,0,0,0-1.059-2.153,4.214,4.214,0,0,0-2.6-.116c-.946.239-1.384.714-1.435,1.542-.091,1.453.175,2,1.183,2.409.8.325,1.627.605,2.4.986a1.562,1.562,0,0,1,.686.8,1.772,1.772,0,0,1,.008,1.053,1.21,1.21,0,0,1-.552.761,4.459,4.459,0,0,1-1.534.231c-1.031,0-1.425-.432-1.461-1.461,0-.085.026-.209-.018-.245a.741.741,0,0,0-.394-.2c-.138,0-.363.079-.4.181a1.752,1.752,0,0,0,.911,2.191,10.105,10.105,0,0,0,1.534.392c.534-.075.927-.1,1.3-.187a1.7,1.7,0,0,0,1.536-1.938q0-.332,0-.663A1.682,1.682,0,0,0,541.751,803.357Z" transform="translate(-537.591 -799.132)"/>
          <path id="Path_6413" data-name="Path 6413" d="M546.942,799.456a4.532,4.532,0,0,0-3.38.008,1.464,1.464,0,0,0-.97,1.471c0,.85,0,1.7,0,2.549h0c0,.832,0,1.664,0,2.5a1.507,1.507,0,0,0,1.351,1.7,8.156,8.156,0,0,0,2.317.081c1.248-.156,1.676-.739,1.678-2q0-2.4,0-4.789A1.482,1.482,0,0,0,546.942,799.456Zm.14,6.245c0,.751-.235,1.15-.972,1.268a5.851,5.851,0,0,1-1.9-.049.976.976,0,0,1-.765-1.067c0-.781,0-1.562,0-2.341,0-.747-.006-1.493,0-2.24a1.083,1.083,0,0,1,1.011-1.238,4.7,4.7,0,0,1,1.41-.053c.9.118,1.213.526,1.215,1.445Q547.088,803.564,547.082,805.7Z" transform="translate(-532.737 -799.133)"/>
          <path id="Path_6414" data-name="Path 6414" d="M557.324,799.194q-2.268,0-4.537,0c-.268,0-.5-.018-.509.377s.227.422.526.418c.588-.01,1.175,0,1.81,0v.631c0,2.175,0,4.35,0,6.525,0,.337,0,.59.467.586s.452-.28.452-.6q-.006-3.262,0-6.524v-.613c.653,0,1.213,0,1.771,0,.278,0,.552.038.562-.386S557.61,799.194,557.324,799.194Z" transform="translate(-523.32 -799.074)"/>
          <path id="Path_6415" data-name="Path 6415" d="M557.587,799.188c-.418,0-.461.209-.459.542.012,1.221,0,2.441.006,3.662,0,1.254.006,2.508,0,3.764,0,.343.018.588.475.578.44-.008.432-.26.43-.57q-.006-3.712,0-7.426C558.037,799.413,558.013,799.19,557.587,799.188Z" transform="translate(-518.607 -799.08)"/>
        </g>
        <path id="Path_6416" data-name="Path 6416" d="M532.555,803.165l.239.438a4.774,4.774,0,0,0-.8-.091c-.306.018-.6.13-.909.154-1.055.081-2.112.154-3.171.2-.152.006-.313-.15-.469-.231,1.031-.073,2.063-.134,3.092-.225C531.212,803.35,531.883,803.248,532.555,803.165Z" transform="translate(-513.508 -779.999)"/>
        <path id="Path_6417" data-name="Path 6417" d="M528,802.036c-.9-.03-1.808-.055-2.711-.1a1.241,1.241,0,0,1-.371-.146Z" transform="translate(-515.961 -781.334)"/>
        <path id="Path_6418" data-name="Path 6418" d="M526.633,802.88l2.419.014Z" transform="translate(-514.297 -780.276)"/>
        <path id="Path_6419" data-name="Path 6419" d="M521.5,801a6.243,6.243,0,0,0-.213.828,7.7,7.7,0,0,0-.008.954,1.1,1.1,0,0,1-.172-.365c-.022-.416,0-.834-.008-1.252C521.1,800.767,521.252,800.773,521.5,801Z" transform="translate(-519.675 -782.253)"/>
        <path id="Path_6420" data-name="Path 6420" d="M525.105,801.89c-.605-.061-1.211-.118-1.814-.2-.071-.008-.126-.124-.189-.191Z" transform="translate(-517.729 -781.613)"/>
        <path id="Path_6421" data-name="Path 6421" d="M522.264,802.281c.079-.026.168-.087.237-.069.448.108.9.227,1.339.361a1.237,1.237,0,0,1,.3.2Z" transform="translate(-518.543 -780.927)"/>
        <path id="Path_6422" data-name="Path 6422" d="M528.5,791.416a1.347,1.347,0,0,1-.408.118c-.712-.026-1.422-.075-2.134-.114Z" transform="translate(-514.957 -791.416)"/>
        <path id="Path_6423" data-name="Path 6423" d="M530.3,801.806c-.6.386-1.258.17-1.893.2Z" transform="translate(-512.572 -781.32)"/>
        <path id="Path_6424" data-name="Path 6424" d="M525.081,802.779l1.926.16Z" transform="translate(-515.806 -780.374)"/>
        <path id="Path_6425" data-name="Path 6425" d="M523.983,804.2l-.209-.122.071-.13c.461.083.964-.1,1.372.3l-.306.077Z" transform="translate(-517.076 -779.242)"/>
        <path id="Path_6426" data-name="Path 6426" d="M528.484,802.959q.89-.1,1.779-.2Q529.375,802.862,528.484,802.959Z" transform="translate(-512.499 -780.39)"/>
        <path id="Path_6427" data-name="Path 6427" d="M527.142,803.426c-.211.684-.605.2-.931.146v-.2Z" transform="translate(-514.708 -779.795)"/>
        <path id="Path_6428" data-name="Path 6428" d="M529.52,802.938a3.175,3.175,0,0,1,.495-.181c.426-.079.858-.134,1.286-.2Z" transform="translate(-511.492 -780.59)"/>
        <path id="Path_6429" data-name="Path 6429" d="M523.81,801.693a2.244,2.244,0,0,1-.517-.035c-.379-.12-.747-.274-1.122-.414Z" transform="translate(-518.633 -781.867)"/>
        <path id="Path_6430" data-name="Path 6430" d="M528.466,801.923l-1.532,0Z" transform="translate(-514.005 -781.208)"/>
        <path id="Path_6431" data-name="Path 6431" d="M526.86,803.4v.2a4.983,4.983,0,0,1-.887.045c-.152-.02-.286-.2-.43-.3Z" transform="translate(-515.357 -779.824)"/>
        <path id="Path_6432" data-name="Path 6432" d="M522.611,801.43c-.339-.065-.682-.11-1.013-.2-.1-.03-.166-.187-.247-.286Z" transform="translate(-519.43 -782.16)"/>
        <path id="Path_6433" data-name="Path 6433" d="M525.322,804.289c.458-.152.915-.3,1.343.073l-.454.049-.87-.04A.233.233,0,0,0,525.322,804.289Z" transform="translate(-515.571 -779.065)"/>
        <path id="Path_6434" data-name="Path 6434" d="M524.287,803.2a.793.793,0,0,1-1.132-.075c-.008-.014.065-.069.1-.1l.416.063.276.087Z" transform="translate(-517.678 -780.137)"/>
        <path id="Path_6435" data-name="Path 6435" d="M530.454,802.75l1.268-.4Z" transform="translate(-510.584 -780.789)"/>
        <path id="Path_6436" data-name="Path 6436" d="M530.39,801.716c-.3.1-.554.5-.925.144Z" transform="translate(-511.545 -781.407)"/>
        <path id="Path_6437" data-name="Path 6437" d="M523.548,802.558l1.079.2Z" transform="translate(-517.295 -780.589)"/>
        <path id="Path_6438" data-name="Path 6438" d="M524.549,804.1c.318,0,.637-.024.952,0a1.236,1.236,0,0,1,.388.2l-.1.075-.191-.028-.834-.075-.183-.024Z" transform="translate(-516.323 -779.098)"/>
        <path id="Path_6439" data-name="Path 6439" d="M525.773,804.3l.454-.049.412.12Z" transform="translate(-515.133 -778.948)"/>
        <path id="Path_6440" data-name="Path 6440" d="M524.658,804.184l.834.075Z" transform="translate(-516.217 -779.009)"/>
        <path id="Path_6441" data-name="Path 6441" d="M524.662,802.821c.223-.315.408-.109.6.045Z" transform="translate(-516.213 -780.493)"/>
        <path id="Path_6442" data-name="Path 6442" d="M525.077,801.809c-.205.276-.387.313-.526-.053Z" transform="translate(-516.322 -781.368)"/>
        <path id="Path_6443" data-name="Path 6443" d="M521.74,802.068l.655.233Z" transform="translate(-519.052 -781.065)"/>
        <path id="Path_6444" data-name="Path 6444" d="M528.123,804.333l.672-.059Z" transform="translate(-512.849 -778.921)"/>
        <path id="Path_6445" data-name="Path 6445" d="M530.985,801.54l-.655.191Z" transform="translate(-510.705 -781.578)"/>
        <path id="Path_6446" data-name="Path 6446" d="M531.28,801.443c-.089.341-.318.187-.517.148Z" transform="translate(-510.284 -781.672)"/>
        <path id="Path_6447" data-name="Path 6447" d="M521.254,801.87l.6.1,0,0-.1.1Z" transform="translate(-519.525 -781.257)"/>
        <path id="Path_6448" data-name="Path 6448" d="M524.741,804.1l.031.148-.422-.071.306-.077A.615.615,0,0,0,524.741,804.1Z" transform="translate(-516.515 -779.093)"/>
        <path id="Path_6449" data-name="Path 6449" d="M524.3,802.685l.408.053Z" transform="translate(-516.563 -780.465)"/>
        <path id="Path_6450" data-name="Path 6450" d="M531.274,802.391l.465-.2Z" transform="translate(-509.788 -780.94)"/>
        <path id="Path_6451" data-name="Path 6451" d="M521.563,801.923l.215.225-.225-.083.008-.14Z" transform="translate(-519.234 -781.206)"/>
        <path id="Path_6452" data-name="Path 6452" d="M531.537,802.289l.432-.2Z" transform="translate(-509.532 -781.047)"/>
        <path id="Path_6453" data-name="Path 6453" d="M530.363,801.659l-.345.091Z" transform="translate(-511.008 -781.462)"/>
        <path id="Path_6454" data-name="Path 6454" d="M528.951,804.267l.3-.035Z" transform="translate(-512.045 -778.962)"/>
        <path id="Path_6455" data-name="Path 6455" d="M525.178,804.273l.1-.075.185.022a.279.279,0,0,1,.018.083Z" transform="translate(-515.711 -778.995)"/>
        <path id="Path_6456" data-name="Path 6456" d="M531.728,801.241l-.27.11C531.549,801.314,531.637,801.276,531.728,801.241Z" transform="translate(-509.609 -781.869)"/>
        <path id="Path_6457" data-name="Path 6457" d="M532.319,800.947l-.095.239-.126-.11Z" transform="translate(-508.987 -782.154)"/>
        <path id="Path_6458" data-name="Path 6458" d="M528.468,801.908l-.112.174-.073-.166Z" transform="translate(-512.694 -781.22)"/>
        <path id="Path_6459" data-name="Path 6459" d="M527.057,801.921l-.444,0Z" transform="translate(-514.317 -781.212)"/>
        <path id="Path_6460" data-name="Path 6460" d="M523.333,802.524l.274.049Z" transform="translate(-517.504 -780.622)"/>
        <path id="Path_6461" data-name="Path 6461" d="M524.445,801.733l-.2-.018Z" transform="translate(-516.617 -781.408)"/>
        <path id="Path_6462" data-name="Path 6462" d="M523.693,803.142l-.276-.087Z" transform="translate(-517.423 -780.106)"/>
        <path id="Path_6463" data-name="Path 6463" d="M531.975,801.127l-.252.12Z" transform="translate(-509.351 -781.979)"/>
        <path id="Path_6464" data-name="Path 6464" d="M528.367,801.915l-.256,0Z" transform="translate(-512.861 -781.214)"/>
        <path id="Path_6465" data-name="Path 6465" d="M531.438,801.321l.032.1-.079-.1Z" transform="translate(-509.674 -781.791)"/>
        <path id="Path_6466" data-name="Path 6466" d="M532.168,801.035l-.233.1Z" transform="translate(-509.145 -782.069)"/>
        <path id="Path_6467" data-name="Path 6467" d="M528.387,802.873l.089-.006-.043.02Z" transform="translate(-512.593 -780.288)"/>
        <path id="Path_6468" data-name="Path 6468" d="M521.607,801.924l-.008.14-.093-.043Z" transform="translate(-519.28 -781.205)"/>
        <path id="Path_6469" data-name="Path 6469" d="M529.463,802.758l.11-.008Z" transform="translate(-511.547 -780.402)"/>
        <path id="Path_6470" data-name="Path 6470" d="M530.33,801.641l0,.071-.028-.069Z" transform="translate(-510.73 -781.48)"/>
        <path id="Path_6471" data-name="Path 6471" d="M531.289,801.375l-.13.045Z" transform="translate(-509.899 -781.738)"/>
        <g id="Group_7017" data-name="Group 7017" transform="translate(33.55 2.631)">
          <path id="Path_6472" data-name="Path 6472" d="M570.58,796.211a14.524,14.524,0,0,0,0-1.575,1.475,1.475,0,0,0-.8-1.286,4,4,0,0,0-1.428-.467c-1-.083-2-.024-3-.071-.515-.026-.674.136-.669.655.026,2.242,0,4.482.014,6.724.008,1.266-.231,1.106,1.195,1.126.378,0,.5-.154.489-.525-.024-.712-.024-1.426,0-2.137.008-.2.172-.554.225-.548.408.055.946-.307,1.2.312q.4.961.8,1.922c.422,1.016.422,1.016,1.495.97.513-.02.56-.095.353-.588-.392-.937-.791-1.871-1.213-2.865A1.894,1.894,0,0,0,570.58,796.211Zm-2.449.392a15.707,15.707,0,0,1-1.733.014V794.28a16.594,16.594,0,0,1,1.747.014c.588.065.795.428.8,1.161S568.728,796.536,568.131,796.6Z" transform="translate(-510.874 -792.693)"/>
          <path id="Path_6473" data-name="Path 6473" d="M541.884,796.658c-.7-.26-1.4-.5-2.1-.759a.739.739,0,0,1-.511-.791.831.831,0,0,1,.511-.854,1.266,1.266,0,0,1,1.9,1.025c.024.136.268.353.375.335.416-.071.921.29,1.25-.229.008-.012,0-.033.008-.049a1.931,1.931,0,0,0-1.254-2.291,4.48,4.48,0,0,0-3.33.051,1.571,1.571,0,0,0-1.057,1.532l0,1.118a1.672,1.672,0,0,0,1.183,1.447c.771.306,1.55.6,2.321.9a.847.847,0,0,1,.568.875.958.958,0,0,1-.449.952,1.4,1.4,0,0,1-2.2-1.146c-.012-.15-.138-.406-.237-.418a6.77,6.77,0,0,0-1.165-.008c-.071,0-.168.111-.2.191a2.133,2.133,0,0,0,1.195,2.624,4.934,4.934,0,0,0,2.806.2c1.189-.227,1.8-.824,1.883-1.818C543.538,797.811,543.2,797.149,541.884,796.658Z" transform="translate(-537.392 -792.75)"/>
          <path id="Path_6474" data-name="Path 6474" d="M557.807,796.452a6.823,6.823,0,0,0,.079-1.408,1.985,1.985,0,0,0-2.064-2.165l-3.689-.02a1.672,1.672,0,0,0-.156.481q-.015,3.679,0,7.359a1.64,1.64,0,0,0,.16.477c.414.018.83.057,1.244.038.087,0,.235-.221.237-.343.014-.891,0-1.783-.008-2.674a1.022,1.022,0,0,1,1.6.452c.258.6.526,1.2.791,1.8.008-.132.026-.266.038-.4-.012.132-.03.266-.038.4l.089.189.181.107-.181-.107c.061.28.093.6.471.619a9.684,9.684,0,0,0,1.015,0c.262-.01.371-.138.249-.4-.176-.382-.343-.769-.515-1.153a.067.067,0,0,0-.047-.075l-.682-1.765.732-.56A3.116,3.116,0,0,0,557.807,796.452Zm-1.686-.412a.933.933,0,0,1-.639.495,7.951,7.951,0,0,1-1.563.077c-.093,0-.25-.205-.256-.322-.03-.507.014-1.017-.022-1.522-.031-.457.1-.674.586-.6a2.141,2.141,0,0,0,.355,0v.016c.168,0,.337,0,.507,0C556.3,794.231,556.393,795.095,556.121,796.039Z" transform="translate(-523.226 -792.644)"/>
          <path id="Path_6475" data-name="Path 6475" d="M553.632,800.584l-.079-.2-.045-.211-.112-.278a1.3,1.3,0,0,0-.02-.249c-.566-1.934-1.128-3.871-1.7-5.8-.353-1.189-.17-1-1.41-1.035a.652.652,0,0,0-.745.57c-.3,1.094-.643,2.179-.964,3.267q-.612,2.07-1.213,4.145c-.057.2-.239.5.223.481h.9l.4-.288.095-.3.039-.241.1-.268.049-.217.067-.191c.083-.1.166-.276.246-.276.737.006,1.475.043,2.214.071l.073.2.044.209.112.282c-.008.014-.024.028-.022.037a.468.468,0,0,0,.032.081l.1.282c.034.286-.006.625.44.619.4-.014.793-.028,1.189-.043l.095-.237-.071-.205Zm-3.888-2.463.743-3.22.712,3.22Z" transform="translate(-527.804 -792.691)"/>
          <path id="Path_6476" data-name="Path 6476" d="M549.575,793.816c0-1.084.162-.99-1.016-1-.272,0-.544-.035-.672.31-.217.588-.459,1.165-.69,1.747a.054.054,0,0,0-.042.073l-1.353,3.143c-.109-.26-.17-.412-.235-.56q-.843-1.893-1.686-3.79v0h0c-.258-.931-.26-.9-1.195-.937-.526-.02-.659.16-.653.668.028,2.273.006,4.549.016,6.822,0,1.1-.207,1,1.043,1.021.4.008.54-.124.534-.526-.022-1.138-.01-2.275-.006-3.411,0-.154.02-.308.029-.461a15.341,15.341,0,0,1,1.142,2.449.906.906,0,0,0,1.023.669.882.882,0,0,0,.986-.653c.237-.7.542-1.388.826-2.076a1.52,1.52,0,0,1,.167-.258,1.01,1.01,0,0,1,.138.554c0,.881,0,1.765,0,2.648,0,1.189-.107,1.035,1.067,1.069.446.012.586-.134.582-.582C549.567,798.432,549.583,796.123,549.575,793.816Zm-5.608.653.1.207c.13.333.252.672.388,1-.136-.331-.258-.67-.388-1Zm.611,3.466-.057-.154.057.154.1.2Zm2.591-.552a1.856,1.856,0,0,1,.138-.191A1.856,1.856,0,0,0,547.17,797.383Zm.242-.321a4.426,4.426,0,0,0,.434-.57A4.426,4.426,0,0,1,547.412,797.062Zm.838,3.829c.008-.043.018-.089.027-.134-.01.045-.02.091-.027.134l.2.2Zm1.116-7.44-.2-.406.2.406q0,2.653,0,5.308Q549.362,796.107,549.366,793.451Z" transform="translate(-532.88 -792.695)"/>
          <path id="Path_6477" data-name="Path 6477" d="M561.484,792.809c-1.455.029-2.912.01-4.37.01-1.039,0-.846-.051-.883.917-.016.392.148.5.5.5.524-.008,1.049.02,1.571.031q0,3.253,0,6.507c0,.219-.085.517.312.5h.9c.459.1.446-.2.446-.507q-.006-3.244,0-6.491c.507-.014,1.016-.069,1.518-.033.678.051.548-.394.576-.793C562.09,793.008,561.985,792.8,561.484,792.809Zm-3.159,1.457c-.124-.077-.245-.193-.369-.254.124.061.244.177.369.254Z" transform="translate(-519.086 -792.693)"/>
          <path id="Path_6478" data-name="Path 6478" d="M565.079,799.876c-.388-.026-.779-.008-1.169-.008h-1.619v-2.277c.795,0,1.589.006,2.382-.024.187-.008.524-.154.522-.231-.006-.361.268-.795-.191-1.075l-2.577-.012-.01,0a1.756,1.756,0,0,1-.138-.459c-.016-.523,0-1.045,0-1.57h.037l.014-.035c.889.006,1.779.018,2.668.01a1.109,1.109,0,0,0,.379-.164l.038-.911-.109-.244-.029,0-4.352-.039-.221.057a1.537,1.537,0,0,0-.122.406q-.012,3.744,0,7.487a1.442,1.442,0,0,0,.124.4l.217.065,4.269,0c.126-.091.353-.174.363-.276a5.447,5.447,0,0,0-.045-.929A1.459,1.459,0,0,0,565.079,799.876Z" transform="translate(-514.863 -792.668)"/>
        </g>
      </g>
    </g>
  </g>
</svg>
